<?xml version="1.0" encoding="UTF-8" standalone="no"?>
<!DOCTYPE svg PUBLIC "-//W3C//DTD SVG 1.1//EN" "http://www.w3.org/Graphics/SVG/1.1/DTD/svg11.dtd">
<svg xmlns="http://www.w3.org/2000/svg" xmlns:xlink="http://www.w3.org/1999/xlink" version="1.1" width="612pt" height="792pt" viewBox="0 0 612 792">
<g enable-background="new">
<clipPath id="cp0">
<path transform="matrix(1,0,0,-1,0,792)" d="M 0 0 L 612 0 L 612 792 L 0 792 Z "/>
</clipPath>
<g clip-path="url(#cp0)">
<path transform="matrix(1,0,0,-1,0,792)" d="M 0 792 L 612 792 L 612 0 L 0 0 Z " fill="#ffffff"/>
<path transform="matrix(1,0,0,-1,0,792)" d="M 0 792 L 612 792 L 612 0 L 0 0 Z " fill="#dbc2be"/>
<g id="Layer-1" data-name="P">
</g>
<clipPath id="cp1">
<path transform="matrix(1,0,0,-1,0,792)" d="M 32.34599 31.45609 L 586.0119 31.45609 L 586.0119 759.654 L 32.34599 759.654 Z "/>
</clipPath>
<g clip-path="url(#cp1)">
<text xml:space="preserve" transform="matrix(1 0 -0 1 273.906 47.42401)" font-size="12" font-family="ProximaNova"><tspan y="0" x="0 5.9040005 14.772 21.996 29.064002 32.568 41.448 44.52 51.792 60.684">JUSTIN SHI</tspan></text>
<g id="Layer-2" data-name="Span">
<text xml:space="preserve" transform="matrix(1 0 -0 1 273.906 47.42401)" font-size="12" font-family="ProximaNova"><tspan y="0" x="64.188"> </tspan></text>
</g>
</g>
<g id="Layer-1" data-name="P">
<g id="Layer-2" data-name="P">
<text xml:space="preserve" transform="matrix(1 0 -0 1 238.5703 58.11328)" font-size="8" font-family="Menlo"><tspan y="0" x="0 4.8168008 9.633601 14.450401 19.267203 24.084004 28.900805 33.717607 38.534406 43.351205 48.168004 52.984804 57.8016 62.6184 67.4352 72.25201 77.06881 81.88561 86.702419 91.51922 96.33602 101.152828 105.96963 110.78643 115.60323 120.42004 125.23684 130.05364">justinshi@u.northwestern.edu</tspan></text>
<g id="Layer-3" data-name="Span">
<text xml:space="preserve" transform="matrix(1 0 -0 1 238.5703 58.11328)" font-size="8" font-family="Menlo"><tspan y="0" x="134.8594"> </tspan></text>
</g>
</g>
</g>
<g id="Layer-1" data-name="P">
<g id="Layer-2" data-name="P">
<text xml:space="preserve" transform="matrix(1 0 -0 1 245.7949 67.11328)" font-size="8" font-family="Menlo"><tspan y="0" x="0 4.8168008 9.633601 14.450401 19.267203 24.084004 28.900805 33.717607 38.534406 43.351205 48.168004 52.984804 57.8016 62.6184 67.4352 72.25201 77.06881 81.88561 86.702419 91.51922 96.33602 101.152828 105.96963 110.78643 115.60323">www.github.com/notfingees</tspan></text>
<g id="Layer-3" data-name="Span">
<text xml:space="preserve" transform="matrix(1 0 -0 1 245.7949 67.11328)" font-size="8" font-family="Menlo"><tspan y="0" x="120.4102"> </tspan></text>
</g>
</g>
</g>
<g id="Layer-1" data-name="P">
<text xml:space="preserve" transform="matrix(1 0 -0 1 277.1016 76.11328)" font-size="8" font-family="Menlo"><tspan y="0" x="0 4.8168008 9.633601 14.450401 19.267203 24.084004 28.900805 33.717607 38.534406 43.351205 48.168004 52.984804">908 517 6074</tspan></text>
<g id="Layer-2" data-name="Span">
<text xml:space="preserve" transform="matrix(1 0 -0 1 277.1016 76.11328)" font-size="10" font-family="TimesNewRomanPSMT"><tspan y="0" x="57.79688"> </tspan></text>
</g>
</g>
<g id="Layer-1" data-name="P">
<text xml:space="preserve" transform="matrix(1 0 -0 1 36 89.42401)" font-size="12" font-family="ProximaNova"><tspan y="0" x="0 7.068001 15.792002 24.660002 32.868005 40.488004 47.556005 51.060007 60.252008">EDUCATION</tspan></text>
<g id="Layer-2" data-name="Span">
<text xml:space="preserve" transform="matrix(1 0 -0 1 36 89.42401)" font-size="12" font-family="TimesNewRomanPS" font-weight="bold"><tspan y="0" x="69.132"> </tspan></text>
</g>
</g>
<g id="Layer-1" data-name="P">
<g id="Layer-2" data-name="Span">
<text xml:space="preserve" transform="matrix(1 0 -0 1 36 104.333988)" font-size="7" font-family="TimesNewRomanPS" font-weight="bold"><tspan y="0" x="0"> </tspan></text>
</g>
</g>
<g id="Layer-1" data-name="P">
<text xml:space="preserve" transform="matrix(1 0 -0 1 36 116.02002)" font-size="10" font-family="ProximaNova" font-weight="bold"><tspan y="0" x="0 7.2900006 13.030001 16.630002 20.010003 25.810002 33.5 39.03 43.8 47.18 52.71 56.309999 62.1 64.659999 71.939998 77.729999 80.259998 85.38999 90.91999 94.51999 99.28999 101.81999 105.19999 109.789989 112.34998 114.90998 123.68998 129.21999 131.74999 137.53998 143.39998 148.92998 152.52999 158.37999 160.93999 167.80998 173.54999 176.07999 178.60999 184.13999 189.98999 195.51999 198.07999 203.81999 207.09 209.65 216.48999 220.09 223.47 228.24 230.8 237.26001 239.82 245.82 250.81002 253.34001 258.87004 264.66004 269.65003 275.18003 279.95">Northwestern University, Weinberg College of Arts &#x0026; Sciences </tspan></text>
<text xml:space="preserve" transform="matrix(1 0 -0 1 36 116.02002)" font-size="10" font-family="TimesNewRomanPSMT"><tspan y="0" x="282.51 285.01 287.51 290.01 292.51 295.01 297.51 300.01 302.51 305.01 307.51 310.01 312.51 315.01 317.51 320.01 322.51 325.01 327.51 330.01 332.51 335.01 337.51 340.01 342.51 345.01 347.51 350.01 352.51 355.01 357.51 360.01 362.51 365.01 367.51 370.01 372.51 375.01 377.51">                                       </tspan></text>
<g id="Layer-2" data-name="Span">
<text xml:space="preserve" transform="matrix(1 0 -0 1 36 116.02002)" font-size="10" font-family="TimesNewRomanPSMT"><tspan y="0" x="380.01"> </tspan></text>
</g>
<g id="Layer-2" data-name="Span">
<text xml:space="preserve" transform="matrix(1 0 -0 1 36 116.02002)" font-size="10" font-family="TimesNewRomanPSMT"><tspan y="0" x="396"> </tspan></text>
</g>
<text xml:space="preserve" transform="matrix(1 0 -0 1 36 116.02002)" font-size="10" font-family="TimesNewRomanPSMT"><tspan y="0" x="432 434.5 437 439.5 442 444.5 447 449.5 452 454.5 457 459.5 462 464.5 467 469.5 472 474.5 477 479.5">                    </tspan></text>
<text xml:space="preserve" transform="matrix(1 0 -0 1 36 116.02002)" font-size="8" font-family="Menlo"><tspan y="0" x="482 486.8168 491.6336 496.4504 501.2672 506.084 510.90083 515.7176 520.53439 525.35116 530.1679 534.9847">Evanston, IL</tspan></text>
<g id="Layer-2" data-name="Span">
<text xml:space="preserve" transform="matrix(1 0 -0 1 36 116.02002)" font-size="8" font-family="Menlo"><tspan y="0" x="539.7969"> </tspan></text>
</g>
</g>
<g id="Layer-1" data-name="P">
<g id="Layer-2" data-name="P">
<g id="Layer-3" data-name="P">
<text xml:space="preserve" transform="matrix(1 0 -0 1 54 127.08502)" font-size="8" font-family="Helvetica"><tspan y="0" x="0">&#x25cf;</tspan></text>
</g>
<g id="Layer-3" data-name="P">
<text xml:space="preserve" transform="matrix(1 0 -0 1 64 126.538089)" font-size="8" font-family="Menlo"><tspan y="0" x="0 4.8168008 9.633601 14.450401 19.267203 24.084004 28.900805 33.717607 38.534406 43.351205 48.168004 52.984804 57.8016 62.6184 67.4352 72.25201 77.06881 81.88561 86.702419 91.51922 96.33602 101.152828 105.96963 110.78643 115.60323 120.42004 125.23684 130.05364 134.87044 139.68724 144.50405 149.32085 154.13765 158.95446 163.77126 168.58806 173.40486 178.22167 183.03847 187.85527 192.67208 197.48888 202.30568 207.12248 211.93929 216.75609 221.57289 226.3897 231.2065 236.0233 240.8401 245.6569 250.47371 255.29051 260.1073 264.9241 269.7409 274.5577 279.3745 284.1913 289.00813 293.82493 298.64173 303.45854 308.27534 313.09214 317.90895 322.72575 327.54255 332.35935 337.17616 341.99296 346.80976 351.62657 356.44337 361.26017">Bachelor of Arts in Computer Science                                        </tspan></text>
<text xml:space="preserve" transform="matrix(1 0 -0 1 64 126.538089)" font-size="8" font-family="Menlo" font-style="italic"><tspan y="0" x="366.0469 370.8637 375.6805 380.4973 385.31413 390.13093 394.94773 399.76454 404.58134 409.39814 414.21495 419.03175 423.84855 428.66535 433.48216 438.29896 443.11576 447.93257 452.74937 457.56617 462.38298 467.19978 472.01658 476.83338 481.65019 486.46699 491.28379 496.1006 500.9174 505.7342">Expected Graduation: June 2023</tspan></text>
<g id="Layer-4" data-name="Span">
<text xml:space="preserve" transform="matrix(1 0 -0 1 64 126.538089)" font-size="8" font-family="Menlo" font-style="italic"><tspan y="0" x="510.5391"> </tspan></text>
</g>
</g>
</g>
<g id="Layer-2" data-name="P">
<g id="Layer-3" data-name="P">
<text xml:space="preserve" transform="matrix(1 0 -0 1 54 136.08502)" font-size="8" font-family="Helvetica"><tspan y="0" x="0">&#x25cf;</tspan></text>
</g>
<g id="Layer-3" data-name="P">
<text xml:space="preserve" transform="matrix(1 0 -0 1 64 135.53809)" font-size="8" font-family="Menlo"><tspan y="0" x="0 4.8168008 9.633601 14.450401 19.267203 24.084004 28.900805 33.717607 38.534406 43.351205 48.168004 52.984804 57.8016 62.6184">GPA: 3.75/4.00</tspan></text>
<g id="Layer-4" data-name="Span">
<text xml:space="preserve" transform="matrix(1 0 -0 1 64 135.53809)" font-size="8" font-family="Menlo" font-style="italic"><tspan y="0" x="67.42969"> </tspan></text>
</g>
</g>
</g>
</g>
<g id="Layer-1" data-name="P">
<text xml:space="preserve" transform="matrix(1 0 -0 1 36 159.84882)" font-size="12" font-family="ProximaNova"><tspan y="0" x="0 10.992001 20.184002 28.116002 35.964 39.036 46.104 54.216 61.932 69 76.932 80.436 87.504 96.383998 104.687999">WORK EXPERIENCE</tspan></text>
<g id="Layer-2" data-name="Span">
<text xml:space="preserve" transform="matrix(1 0 -0 1 36 159.84882)" font-size="12" font-family="TimesNewRomanPS" font-weight="bold"><tspan y="0" x="111.756"> </tspan></text>
</g>
</g>
<g id="Layer-1" data-name="P">
<g id="Layer-2" data-name="Span">
<text xml:space="preserve" transform="matrix(1 0 -0 1 36 174.75879)" font-size="7" font-family="TimesNewRomanPS" font-weight="bold"><tspan y="0" x="0"> </tspan></text>
</g>
</g>
<g id="Layer-1" data-name="P">
<text xml:space="preserve" transform="matrix(1 0 -0 1 36 186.44483)" font-size="10" font-family="ProximaNova" font-weight="bold"><tspan y="0" x="0 2.7400003 8.530001 11.090001 19.970002 23.570002 26.100003 29.480004 32.010004 37.800004 43.65 46.210004 48.770006">In Writing   </tspan></text>
<g id="Layer-2" data-name="Span">
<text xml:space="preserve" transform="matrix(1 0 -0 1 36 186.44483)" font-size="10" font-family="ProximaNova" font-weight="bold"><tspan y="0" x="51.33"> </tspan></text>
</g>
<g id="Layer-2" data-name="Span">
<text xml:space="preserve" transform="matrix(1 0 -0 1 36 186.44483)" font-size="10" font-family="ProximaNova" font-weight="bold"><tspan y="0" x="56"> </tspan></text>
</g>
<g id="Layer-2" data-name="Span">
<text xml:space="preserve" transform="matrix(1 0 -0 1 36 186.44483)" font-size="10" font-family="TimesNewRomanPS" font-weight="bold"><tspan y="0" x="84"> </tspan></text>
</g>
<g id="Layer-2" data-name="Span">
<text xml:space="preserve" transform="matrix(1 0 -0 1 36 186.44483)" font-size="10" font-family="TimesNewRomanPS" font-weight="bold"><tspan y="0" x="112"> </tspan></text>
</g>
<g id="Layer-2" data-name="Span">
<text xml:space="preserve" transform="matrix(1 0 -0 1 36 186.44483)" font-size="10" font-family="TimesNewRomanPS" font-weight="bold"><tspan y="0" x="140"> </tspan></text>
</g>
<g id="Layer-2" data-name="Span">
<text xml:space="preserve" transform="matrix(1 0 -0 1 36 186.44483)" font-size="10" font-family="TimesNewRomanPS" font-weight="bold"><tspan y="0" x="168"> </tspan></text>
</g>
<g id="Layer-2" data-name="Span">
<text xml:space="preserve" transform="matrix(1 0 -0 1 36 186.44483)" font-size="10" font-family="TimesNewRomanPS" font-weight="bold"><tspan y="0" x="196"> </tspan></text>
</g>
<g id="Layer-2" data-name="Span">
<text xml:space="preserve" transform="matrix(1 0 -0 1 36 186.44483)" font-size="10" font-family="TimesNewRomanPS" font-weight="bold"><tspan y="0" x="224"> </tspan></text>
</g>
<text xml:space="preserve" transform="matrix(1 0 -0 1 36 186.44483)" font-size="10" font-family="TimesNewRomanPS" font-weight="bold"><tspan y="0" x="252"> </tspan></text>
<g id="Layer-2" data-name="Span">
<text xml:space="preserve" transform="matrix(1 0 -0 1 36 186.44483)" font-size="10" font-family="TimesNewRomanPS" font-weight="bold"><tspan y="0" x="254.5"> </tspan></text>
</g>
<text xml:space="preserve" transform="matrix(1 0 -0 1 36 186.44483)" font-size="10" font-family="TimesNewRomanPS" font-weight="bold"><tspan y="0" x="280 282.5 285 287.5 290 292.5 295 297.5 300 302.5 305 307.5 310 312.5 315 317.5 320 322.5 325 327.5 330 332.5 335 337.5 340 342.5 345 347.5 350 352.5 355 357.5 360 362.5 365 367.5 370 372.5 375 377.5 380 382.5 385 387.5 390 392.5 395 397.5 400 402.5 405 407.5 410 412.5 415 417.5 420 422.5 425 427.5 430 432.5 435 437.5 440 442.5 445 447.5 450 452.5 455 457.5 460 462.5 465 467.5 470 472.5 475 477.5">                                                                                </tspan></text>
<text xml:space="preserve" transform="matrix(1 0 -0 1 36 186.44483)" font-size="8" font-family="Menlo"><tspan y="0" x="480 484.8168 489.6336 494.4504 499.2672 504.084 508.90083 513.7176 518.53439 523.35116 528.1679 532.9847 537.80148">Evanston, IL </tspan></text>
<text xml:space="preserve" transform="matrix(1 0 -0 1 36 196.96289)" font-size="8" font-family="Menlo" font-style="italic"><tspan y="0" x="0 4.8168008 9.633601 14.450401 19.267203 24.084004 28.900805 33.717607 38.534406 43.351205 48.168004 52.984804 57.8016 62.6184 67.4352 72.25201 77.06881 81.88561">Startup Co-Founder</tspan></text>
<g id="Layer-2" data-name="Span">
<text xml:space="preserve" transform="matrix(1 0 -0 1 36 196.96289)" font-size="8" font-family="Menlo"><tspan y="0" x="86.69531"> </tspan></text>
</g>
<g id="Layer-2" data-name="Span">
<text xml:space="preserve" transform="matrix(1 0 -0 1 36 196.96289)" font-size="8" font-family="Menlo"><tspan y="0" x="112"> </tspan></text>
</g>
<g id="Layer-2" data-name="Span">
<text xml:space="preserve" transform="matrix(1 0 -0 1 36 196.96289)" font-size="8" font-family="Menlo"><tspan y="0" x="140"> </tspan></text>
</g>
<g id="Layer-2" data-name="Span">
<text xml:space="preserve" transform="matrix(1 0 -0 1 36 196.96289)" font-size="8" font-family="Menlo"><tspan y="0" x="168"> </tspan></text>
</g>
<g id="Layer-2" data-name="Span">
<text xml:space="preserve" transform="matrix(1 0 -0 1 36 196.96289)" font-size="8" font-family="Menlo"><tspan y="0" x="196"> </tspan></text>
</g>
<g id="Layer-2" data-name="Span">
<text xml:space="preserve" transform="matrix(1 0 -0 1 36 196.96289)" font-size="8" font-family="Menlo"><tspan y="0" x="224"> </tspan></text>
</g>
<text xml:space="preserve" transform="matrix(1 0 -0 1 36 196.96289)" font-size="8" font-family="Menlo"><tspan y="0" x="252 256.8168 261.6336 266.4504 271.2672 276.084 280.90083 285.71763 290.53443 295.35124 300.16804">           </tspan></text>
<g id="Layer-2" data-name="Span">
<text xml:space="preserve" transform="matrix(1 0 -0 1 36 196.96289)" font-size="8" font-family="Menlo"><tspan y="0" x="304.9805"> </tspan></text>
</g>
<g id="Layer-2" data-name="Span">
<text xml:space="preserve" transform="matrix(1 0 -0 1 36 196.96289)" font-size="8" font-family="Menlo"><tspan y="0" x="308"> </tspan></text>
</g>
<text xml:space="preserve" transform="matrix(1 0 -0 1 36 196.96289)" font-size="8" font-family="Menlo"><tspan y="0" x="336 340.8168 345.6336 350.4504 355.2672 360.084 364.90083 369.71763 374.53443 379.35124 384.16804 388.98484 393.80165 398.61845 403.43525 408.25205 413.06886">                 </tspan></text>
<text xml:space="preserve" transform="matrix(1 0 -0 1 36 196.96289)" font-size="8" font-family="Menlo" font-style="italic"><tspan y="0" x="417.8789 422.6957 427.5125 432.3293 437.14613 441.96293 446.77973 451.59654 456.41334 461.23014 466.04695 470.86375 475.68055">November 2021</tspan></text>
<text xml:space="preserve" transform="matrix(1 0 -0 1 36 196.96289)" font-size="8" font-family="Menlo"><tspan y="0" x="480.4922"> </tspan></text>
<text xml:space="preserve" transform="matrix(1 0 -0 1 36 196.96289)" font-size="8" font-family="Menlo" font-style="italic"><tspan y="0" x="485.3086 490.1254 494.9422 499.759 504.5758 509.3926 514.2094 519.0262 523.84298 528.6597 533.4765">- July 2022</tspan></text>
<g id="Layer-2" data-name="Span">
<text xml:space="preserve" transform="matrix(1 0 -0 1 36 196.96289)" font-size="8" font-family="Menlo"><tspan y="0" x="538.2891"> </tspan></text>
</g>
</g>
<g id="Layer-1" data-name="P">
<g id="Layer-2" data-name="P">
<g id="Layer-3" data-name="P">
<text xml:space="preserve" transform="matrix(1 0 -0 1 54 206.50983)" font-size="8" font-family="Helvetica"><tspan y="0" x="0">&#x25cf;</tspan></text>
</g>
<g id="Layer-3" data-name="P">
<g id="Layer-4" data-name="P">
<text xml:space="preserve" transform="matrix(1 0 -0 1 63 205.96289)" font-size="8" font-family="Menlo"><tspan y="0" x="0 4.8168008 9.633601 14.450401 19.267203 24.084004 28.900805 33.717607 38.534406 43.351205 48.168004 52.984804 57.8016 62.6184 67.4352 72.25201 77.06881 81.88561 86.702419 91.51922">Founded In Writing (</tspan></text>
</g>
<g id="Layer-4" data-name="P">
<text xml:space="preserve" transform="matrix(1 0 -0 1 63 205.96289)" font-size="8" font-family="Menlo"><tspan y="0" x="96.32812 101.14492 105.96172 110.77853 115.59533 120.41213 125.228939 130.04573 134.86254 139.67934 144.49614 149.31295 154.12975">inwriting.io)</tspan></text>
</g>
<g id="Layer-4" data-name="P">
<text xml:space="preserve" transform="matrix(1 0 -0 1 63 205.96289)" font-size="8" font-family="Menlo"><tspan y="0" x="158.9414 163.75821 168.57501 173.39182 178.20862 183.02542 187.84223 192.65903 197.47583 202.29264 207.10944 211.92624 216.74304 221.55985 226.37665 231.19345 236.01026 240.82706 245.64386 250.46067 255.27747 260.09428 264.91108 269.72789 274.54469 279.36149 284.17829 288.9951 293.8119 298.6287 303.4455 308.2623 313.0791 317.8959 322.7127 327.5295 332.3463 337.16313 341.97993 346.79673 351.61354 356.43034 361.24714 366.06394 370.88075 375.69755 380.51435 385.33116 390.14796 394.96476 399.78157 404.59837 409.41517 414.23197 419.04878 423.86558 428.68238 433.49919 438.31599 443.13279 447.9496 452.7664 457.5832 462.4 467.2168 472.0336 476.8504 481.6672"> - a decentralized text NFT marketplace on the Ethereum and Polygon </tspan></text>
</g>
<g id="Layer-4" data-name="P">
<text xml:space="preserve" transform="matrix(1 0 -0 1 63 215.86292)" font-size="8" font-family="Menlo"><tspan y="0" x="0 4.8168008 9.633601 14.450401 19.267203 24.084004 28.900805 33.717607 38.534406 43.351205 48.168004">blockchains</tspan></text>
<g id="Layer-5" data-name="Span">
<text xml:space="preserve" transform="matrix(1 0 -0 1 63 215.86292)" font-size="8" font-family="Menlo"><tspan y="0" x="52.98047"> </tspan></text>
</g>
</g>
</g>
</g>
<g id="Layer-2" data-name="P">
<g id="Layer-3" data-name="P">
<text xml:space="preserve" transform="matrix(1 0 -0 1 54 226.30982)" font-size="8" font-family="Helvetica"><tspan y="0" x="0">&#x25cf;</tspan></text>
</g>
<g id="Layer-3" data-name="P">
<text xml:space="preserve" transform="matrix(1 0 -0 1 63 225.76288)" font-size="8" font-family="Menlo"><tspan y="0" x="0 4.8168008 9.633601 14.450401 19.267203 24.084004 28.900805 33.717607 38.534406 43.351205 48.168004 52.984804 57.8016 62.6184 67.4352 72.25201 77.06881 81.88561 86.702419 91.51922 96.33602 101.152828 105.96963 110.78643 115.60323 120.42004 125.23684 130.05364 134.87044 139.68724 144.50405 149.32085 154.13765 158.95446 163.77126 168.58806 173.40486 178.22167 183.03847 187.85527 192.67208 197.48888 202.30568 207.12248 211.93929 216.75609 221.57289 226.3897 231.2065 236.0233 240.8401 245.6569 250.47371 255.29051 260.1073 264.9241 269.7409 274.5577 279.3745 284.1913 289.00813 293.82493 298.64173 303.45854 308.27534 313.09214 317.90895 322.72575 327.54255 332.35935 337.17616 341.99296 346.80976 351.62657 356.44337 361.26017 366.07698 370.89378 375.71058 380.52738 385.34419 390.16099 394.97779 399.7946 404.6114 409.4282 414.245 419.0618 423.8786 428.6954 433.5122 438.329 443.1458 447.96263 452.77943 457.59623 462.41304 467.22984 472.04664 476.86344 481.68025 486.49705 491.31385 496.13066 500.94746">Designed and developed a mobile-friendly, SEO-optimized web application using Nuxt, HTML/CSS, and Amazon </tspan></text>
<text xml:space="preserve" transform="matrix(1 0 -0 1 63 235.6629)" font-size="8" font-family="Menlo"><tspan y="0" x="0 4.8168008 9.633601 14.450401 19.267203 24.084004 28.900805 33.717607 38.534406 43.351205 48.168004 52.984804 57.8016 62.6184 67.4352 72.25201 77.06881 81.88561 86.702419 91.51922 96.33602 101.152828 105.96963 110.78643 115.60323 120.42004 125.23684 130.05364 134.87044 139.68724 144.50405 149.32085 154.13765 158.95446 163.77126 168.58806 173.40486 178.22167 183.03847 187.85527 192.67208 197.48888 202.30568 207.12248 211.93929 216.75609 221.57289 226.3897 231.2065 236.0233 240.8401 245.6569 250.47371 255.29051 260.1073 264.9241 269.7409 274.5577 279.3745 284.1913 289.00813 293.82493 298.64173 303.45854 308.27534 313.09214 317.90895 322.72575 327.54255 332.35935 337.17616 341.99296 346.80976 351.62657 356.44337 361.26017 366.07698 370.89378 375.71058 380.52738 385.34419 390.16099">CDN. After over 30 user interviews, improved user retention and scroll time by 43%</tspan></text>
<g id="Layer-4" data-name="Span">
<text xml:space="preserve" transform="matrix(1 0 -0 1 63 235.6629)" font-size="8" font-family="Menlo"><tspan y="0" x="394.9453"> </tspan></text>
</g>
</g>
</g>
</g>
<g id="Layer-1" data-name="P">
<g id="Layer-2" data-name="P">
<g id="Layer-3" data-name="P">
<text xml:space="preserve" transform="matrix(1 0 -0 1 54 246.1098)" font-size="8" font-family="Helvetica"><tspan y="0" x="0">&#x25cf;</tspan></text>
</g>
<g id="Layer-3" data-name="P">
<text xml:space="preserve" transform="matrix(1 0 -0 1 63 245.56293)" font-size="8" font-family="Menlo"><tspan y="0" x="0 4.8168008 9.633601 14.450401 19.267203 24.084004 28.900805 33.717607 38.534406 43.351205 48.168004 52.984804 57.8016 62.6184 67.4352 72.25201 77.06881 81.88561 86.702419 91.51922 96.33602 101.152828 105.96963 110.78643 115.60323 120.42004 125.23684 130.05364 134.87044 139.68724 144.50405 149.32085 154.13765 158.95446 163.77126 168.58806 173.40486 178.22167 183.03847 187.85527 192.67208 197.48888 202.30568 207.12248 211.93929 216.75609 221.57289 226.3897 231.2065 236.0233 240.8401 245.6569 250.47371 255.29051 260.1073 264.9241 269.7409 274.5577 279.3745 284.1913 289.00813 293.82493 298.64173 303.45854 308.27534 313.09214 317.90895 322.72575 327.54255 332.35935 337.17616 341.99296 346.80976 351.62657 356.44337 361.26017 366.07698 370.89378 375.71058 380.52738 385.34419 390.16099 394.97779 399.7946 404.6114 409.4282 414.245 419.0618 423.8786 428.6954 433.5122 438.329 443.1458 447.96263 452.77943 457.59623 462.41304 467.22984 472.04664 476.86344 481.68025 486.49705 491.31385 496.13066 500.94746">Leveraged knowledge in design patterns and cryptography to test and build a decentralized marketplace in </tspan></text>
<text xml:space="preserve" transform="matrix(1 0 -0 1 63 255.46289)" font-size="8" font-family="Menlo"><tspan y="0" x="0 4.8168008 9.633601 14.450401 19.267203 24.084004 28.900805 33.717607 38.534406">Solidity </tspan></text>
<g id="Layer-4" data-name="Span">
<text xml:space="preserve" transform="matrix(1 0 -0 1 63 255.46289)" font-size="8" font-family="Menlo"><tspan y="0" x="43.34766"> </tspan></text>
</g>
</g>
</g>
<g id="Layer-2" data-name="P">
<g id="Layer-3" data-name="P">
<text xml:space="preserve" transform="matrix(1 0 -0 1 54 265.9098)" font-size="8" font-family="Helvetica"><tspan y="0" x="0">&#x25cf;</tspan></text>
</g>
<g id="Layer-3" data-name="P">
<text xml:space="preserve" transform="matrix(1 0 -0 1 63 265.3629)" font-size="8" font-family="Menlo"><tspan y="0" x="0 4.8168008 9.633601 14.450401 19.267203 24.084004 28.900805 33.717607 38.534406 43.351205 48.168004 52.984804 57.8016 62.6184 67.4352 72.25201 77.06881 81.88561 86.702419 91.51922 96.33602 101.152828 105.96963 110.78643 115.60323 120.42004 125.23684 130.05364 134.87044 139.68724 144.50405 149.32085 154.13765 158.95446 163.77126 168.58806 173.40486 178.22167 183.03847 187.85527 192.67208 197.48888 202.30568 207.12248 211.93929 216.75609 221.57289 226.3897 231.2065 236.0233 240.8401 245.6569 250.47371 255.29051 260.1073 264.9241 269.7409 274.5577 279.3745 284.1913 289.00813 293.82493 298.64173 303.45854 308.27534 313.09214 317.90895 322.72575 327.54255 332.35935 337.17616 341.99296 346.80976 351.62657 356.44337 361.26017 366.07698 370.89378 375.71058 380.52738 385.34419 390.16099 394.97779 399.7946 404.6114 409.4282 414.245 419.0618 423.8786 428.6954 433.5122 438.329 443.1458 447.96263 452.77943 457.59623 462.41304 467.22984 472.04664 476.86344 481.68025 486.49705 491.31385 496.13066">Partnered with social media influencers and other communities to accumulate over 1,000 users in 3 months</tspan></text>
<g id="Layer-4" data-name="Span">
<text xml:space="preserve" transform="matrix(1 0 -0 1 63 265.3629)" font-size="8" font-family="Menlo" font-weight="bold"><tspan y="0" x="500.9062"> </tspan></text>
</g>
</g>
</g>
</g>
<g id="Layer-1" data-name="P">
<text xml:space="preserve" transform="matrix(1 0 -0 1 36 293.1696)" font-size="10" font-family="ProximaNova" font-weight="bold"><tspan y="0" x="0 6.17 11.6 15.200001 17.730002 23.470002 29.260003 34.030004 36.590005 42.480005 45.860006 51.290006 54.890005 58.270006 64.060009 69.91">Various Startups</tspan></text>
<g id="Layer-2" data-name="Span">
<text xml:space="preserve" transform="matrix(1 0 -0 1 36 293.1696)" font-size="10" font-family="ProximaNova" font-weight="bold"><tspan y="0" x="74.68"> </tspan></text>
</g>
<g id="Layer-2" data-name="Span">
<text xml:space="preserve" transform="matrix(1 0 -0 1 36 293.1696)" font-size="10" font-family="TimesNewRomanPS" font-weight="bold"><tspan y="0" x="84"> </tspan></text>
</g>
<g id="Layer-2" data-name="Span">
<text xml:space="preserve" transform="matrix(1 0 -0 1 36 293.1696)" font-size="10" font-family="TimesNewRomanPS" font-weight="bold"><tspan y="0" x="112"> </tspan></text>
</g>
<g id="Layer-2" data-name="Span">
<text xml:space="preserve" transform="matrix(1 0 -0 1 36 293.1696)" font-size="10" font-family="TimesNewRomanPS" font-weight="bold"><tspan y="0" x="140"> </tspan></text>
</g>
<g id="Layer-2" data-name="Span">
<text xml:space="preserve" transform="matrix(1 0 -0 1 36 293.1696)" font-size="10" font-family="TimesNewRomanPS" font-weight="bold"><tspan y="0" x="168"> </tspan></text>
</g>
<g id="Layer-2" data-name="Span">
<text xml:space="preserve" transform="matrix(1 0 -0 1 36 293.1696)" font-size="10" font-family="TimesNewRomanPS" font-weight="bold"><tspan y="0" x="196"> </tspan></text>
</g>
<g id="Layer-2" data-name="Span">
<text xml:space="preserve" transform="matrix(1 0 -0 1 36 293.1696)" font-size="10" font-family="TimesNewRomanPS" font-weight="bold"><tspan y="0" x="224"> </tspan></text>
</g>
<g id="Layer-2" data-name="Span">
<text xml:space="preserve" transform="matrix(1 0 -0 1 36 293.1696)" font-size="10" font-family="TimesNewRomanPS" font-weight="bold"><tspan y="0" x="252"> </tspan></text>
</g>
<text xml:space="preserve" transform="matrix(1 0 -0 1 36 293.1696)" font-size="10" font-family="TimesNewRomanPS" font-weight="bold"><tspan y="0" x="280"> </tspan></text>
<g id="Layer-2" data-name="Span">
<text xml:space="preserve" transform="matrix(1 0 -0 1 36 293.1696)" font-size="10" font-family="TimesNewRomanPS" font-weight="bold"><tspan y="0" x="282.5"> </tspan></text>
</g>
<text xml:space="preserve" transform="matrix(1 0 -0 1 36 293.1696)" font-size="10" font-family="TimesNewRomanPS" font-weight="bold"><tspan y="0" x="308 310.5 313 315.5 318 320.5 323 325.5 328 330.5 333 335.5 338 340.5 343 345.5 348 350.5 353 355.5 358 360.5 363 365.5 368 370.5 373 375.5 378 380.5 383 385.5 388 390.5 393 395.5 398 400.5 403 405.5 408 410.5 413 415.5 418 420.5 423 425.5 428 430.5 433 435.5 438 440.5 443 445.5 448 450.5 453 455.5 458 460.5 463 465.5 468 470.5 473 475.5">                                                                    </tspan></text>
<text xml:space="preserve" transform="matrix(1 0 -0 1 36 293.1696)" font-size="8" font-family="Menlo"><tspan y="0" x="478 482.8168 487.6336 492.4504 497.2672 502.084 506.90083 511.71763 516.5344 521.3512 526.16799 530.98477 535.8015">Evanston, IL </tspan></text>
<text xml:space="preserve" transform="matrix(1 0 -0 1 36 303.6877)" font-size="8" font-family="Menlo" font-style="italic"><tspan y="0" x="0 4.8168008 9.633601 14.450401 19.267203 24.084004 28.900805 33.717607 38.534406 43.351205 48.168004 52.984804 57.8016 62.6184 67.4352 72.25201 77.06881 81.88561 86.702419 91.51922 96.33602 101.152828 105.96963 110.78643 115.60323 120.42004 125.23684 130.05364 134.87044 139.68724 144.50405 149.32085 154.13765 158.95446">Startups I founded or interned for</tspan></text>
<g id="Layer-2" data-name="Span">
<text xml:space="preserve" transform="matrix(1 0 -0 1 36 303.6877)" font-size="8" font-family="Menlo"><tspan y="0" x="163.7578"> </tspan></text>
</g>
<g id="Layer-2" data-name="Span">
<text xml:space="preserve" transform="matrix(1 0 -0 1 36 303.6877)" font-size="8" font-family="Menlo"><tspan y="0" x="168"> </tspan></text>
</g>
<g id="Layer-2" data-name="Span">
<text xml:space="preserve" transform="matrix(1 0 -0 1 36 303.6877)" font-size="8" font-family="Menlo"><tspan y="0" x="196"> </tspan></text>
</g>
<g id="Layer-2" data-name="Span">
<text xml:space="preserve" transform="matrix(1 0 -0 1 36 303.6877)" font-size="8" font-family="Menlo"><tspan y="0" x="224"> </tspan></text>
</g>
<g id="Layer-2" data-name="Span">
<text xml:space="preserve" transform="matrix(1 0 -0 1 36 303.6877)" font-size="8" font-family="Menlo"><tspan y="0" x="252"> </tspan></text>
</g>
<text xml:space="preserve" transform="matrix(1 0 -0 1 36 303.6877)" font-size="8" font-family="Menlo"><tspan y="0" x="280 284.8168 289.6336 294.4504 299.2672 304.084 308.90083 313.71763 318.53443 323.35124 328.16804">           </tspan></text>
<g id="Layer-2" data-name="Span">
<text xml:space="preserve" transform="matrix(1 0 -0 1 36 303.6877)" font-size="8" font-family="Menlo"><tspan y="0" x="332.9805"> </tspan></text>
</g>
<g id="Layer-2" data-name="Span">
<text xml:space="preserve" transform="matrix(1 0 -0 1 36 303.6877)" font-size="8" font-family="Menlo"><tspan y="0" x="336"> </tspan></text>
</g>
<text xml:space="preserve" transform="matrix(1 0 -0 1 36 303.6877)" font-size="8" font-family="Menlo"><tspan y="0" x="360 364.8168 369.6336 374.4504 379.2672 384.084 388.90083 393.71763 398.53443 403.35124 408.16804 412.98484 417.80165">             </tspan></text>
<text xml:space="preserve" transform="matrix(1 0 -0 1 36 303.6877)" font-size="8" font-family="Menlo" font-style="italic"><tspan y="0" x="422.6133 427.4301 432.24693 437.06373 441.88053 446.69734 451.51414 456.33094 461.14775 465.96455 470.78135 475.59815 480.41496 485.23176 490.04856 494.86537 499.68217 504.49897 509.31578 514.13259 518.94937 523.7661 528.5829 533.39968 538.21646">January 2020 - September </tspan></text>
<text xml:space="preserve" transform="matrix(1 0 -0 1 36 312.6877)" font-size="8" font-family="Menlo" font-style="italic"><tspan y="0" x="0 4.8168008 9.633601 14.450401">2021</tspan></text>
<g id="Layer-2" data-name="Span">
<text xml:space="preserve" transform="matrix(1 0 -0 1 36 312.6877)" font-size="8" font-family="Menlo"><tspan y="0" x="19.26562"> </tspan></text>
</g>
</g>
<g id="Layer-1" data-name="P">
<g id="Layer-2" data-name="P">
<g id="Layer-3" data-name="P">
<text xml:space="preserve" transform="matrix(1 0 -0 1 54 322.2346)" font-size="8" font-family="Helvetica"><tspan y="0" x="0">&#x25cf;</tspan></text>
</g>
<g id="Layer-3" data-name="P">
<g id="Layer-4" data-name="P">
<text xml:space="preserve" transform="matrix(1 0 -0 1 63 321.6877)" font-size="8" font-family="Menlo"><tspan y="0" x="0 4.8168008 9.633601 14.450401 19.267203 24.084004 28.900805 33.717607 38.534406 43.351205 48.168004 52.984804 57.8016 62.6184 67.4352 72.25201 77.06881 81.88561 86.702419 91.51922 96.33602 101.152828 105.96963 110.78643 115.60323 120.42004 125.23684 130.05364 134.87044 139.68724 144.50405 149.32085 154.13765 158.95446 163.77126 168.58806 173.40486 178.22167 183.03847 187.85527 192.67208 197.48888 202.30568 207.12248 211.93929 216.75609 221.57289 226.3897 231.2065 236.0233 240.8401 245.6569 250.47371 255.29051 260.1073 264.9241 269.7409 274.5577 279.3745 284.1913 289.00813 293.82493 298.64173 303.45854 308.27534 313.09214 317.90895 322.72575 327.54255 332.35935 337.17616 341.99296 346.80976 351.62657">Designed and built an iOS application, SPA, and RESTful API for Sunrises (</tspan></text>
</g>
<g id="Layer-4" data-name="P">
<text xml:space="preserve" transform="matrix(1 0 -0 1 63 321.6877)" font-size="8" font-family="Menlo"><tspan y="0" x="356.4141 361.2309 366.0477 370.8645 375.6813 380.4981 385.3149 390.1317 394.94853 399.76533 404.58213 409.39894 414.21574 419.03254 423.84934">sunrisesapp.com</tspan></text>
</g>
<g id="Layer-4" data-name="P">
<text xml:space="preserve" transform="matrix(1 0 -0 1 63 321.6877)" font-size="8" font-family="Menlo"><tspan y="0" x="428.6602 433.477 438.2938 443.1106 447.9274 452.7442 457.561 462.3778 467.1946 472.0114 476.82823 481.64503 486.46183 491.27864 496.09544">) using Swift, </tspan></text>
</g>
<g id="Layer-4" data-name="P">
<text xml:space="preserve" transform="matrix(1 0 -0 1 63 330.6877)" font-size="8" font-family="Menlo"><tspan y="0" x="0 4.8168008 9.633601 14.450401 19.267203 24.084004 28.900805 33.717607 38.534406 43.351205 48.168004 52.984804">PHP, and SQL</tspan></text>
<g id="Layer-5" data-name="Span">
<text xml:space="preserve" transform="matrix(1 0 -0 1 63 330.6877)" font-size="8" font-family="Menlo"><tspan y="0" x="57.79688"> </tspan></text>
</g>
</g>
</g>
</g>
</g>
<g id="Layer-1" data-name="P">
<g id="Layer-2" data-name="P">
<g id="Layer-3" data-name="P">
<text xml:space="preserve" transform="matrix(1 0 -0 1 54 340.2346)" font-size="8" font-family="Helvetica"><tspan y="0" x="0">&#x25cf;</tspan></text>
</g>
<g id="Layer-3" data-name="P">
<text xml:space="preserve" transform="matrix(1 0 -0 1 62.57143 339.6877)" font-size="8" font-family="Menlo"><tspan y="0" x="0 4.8168008 9.633601 14.450401 19.267203 24.084004 28.900805 33.717607 38.534406 43.351205 48.168004 52.984804 57.8016 62.6184 67.4352 72.25201 77.06881 81.88561 86.702419 91.51922 96.33602 101.152828 105.96963 110.78643 115.60323 120.42004 125.23684 130.05364 134.87044 139.68724 144.50405 149.32085 154.13765 158.95446 163.77126 168.58806 173.40486 178.22167 183.03847 187.85527 192.67208 197.48888 202.30568 207.12248 211.93929 216.75609 221.57289 226.3897 231.2065 236.0233 240.8401 245.6569 250.47371 255.29051 260.1073 264.9241 269.7409 274.5577 279.3745 284.1913 289.00813 293.82493 298.64173 303.45854 308.27534 313.09214 317.90895 322.72575 327.54255 332.35935 337.17616 341.99296 346.80976 351.62657 356.44337 361.26017 366.07698 370.89378 375.71058 380.52738 385.34419 390.16099 394.97779 399.7946 404.6114 409.4282 414.245 419.0618 423.8786 428.6954 433.5122 438.329 443.1458 447.96263 452.77943 457.59623 462.41304 467.22984 472.04664 476.86344 481.68025 486.49705 491.31385">Utilized A/B testing and sentiment analysis to design the UIUX for Newco, a talent management software </tspan></text>
<text xml:space="preserve" transform="matrix(1 0 -0 1 62.57143 348.6877)" font-size="8" font-family="Menlo"><tspan y="0" x="0 4.8168008 9.633601 14.450401 19.267203 24.084004 28.900805 33.717607 38.534406 43.351205 48.168004 52.984804 57.8016 62.6184 67.4352 72.25201 77.06881 81.88561 86.702419 91.51922 96.33602 101.152828 105.96963 110.78643 115.60323 120.42004 125.23684 130.05364 134.87044 139.68724 144.50405 149.32085 154.13765 158.95446 163.77126 168.58806 173.40486 178.22167 183.03847 187.85527 192.67208 197.48888 202.30568 207.12248 211.93929 216.75609 221.57289 226.3897 231.2065 236.0233 240.8401 245.6569 250.47371 255.29051 260.1073 264.9241 269.7409 274.5577 279.3745 284.1913 289.00813 293.82493 298.64173 303.45854 308.27534 313.09214 317.90895 322.72575 327.54255 332.35935 337.17616 341.99296 346.80976 351.62657 356.44337 361.26017 366.07698 370.89378 375.71058 380.52738 385.34419 390.16099 394.97779 399.7946 404.6114 409.4282 414.245 419.0618 423.8786 428.6954 433.5122 438.329 443.1458 447.96263 452.77943 457.59623 462.41304 467.22984 472.04664 476.86344 481.68025 486.49705">started by ex-McKinsey consultants, in Figma and Adobe Illustrator. Implemented 9 screens of the user </tspan></text>
<text xml:space="preserve" transform="matrix(1 0 -0 1 62.57143 357.6877)" font-size="8" font-family="Menlo"><tspan y="0" x="0 4.8168008 9.633601 14.450401 19.267203 24.084004 28.900805 33.717607 38.534406 43.351205 48.168004 52.984804 57.8016 62.6184 67.4352 72.25201 77.06881 81.88561 86.702419 91.51922 96.33602 101.152828 105.96963 110.78643 115.60323 120.42004 125.23684 130.05364 134.87044 139.68724 144.50405 149.32085 154.13765 158.95446 163.77126 168.58806 173.40486 178.22167 183.03847 187.85527 192.67208 197.48888 202.30568">interface using HTML, CSS, and Javascript. </tspan></text>
<g id="Layer-4" data-name="Span">
<text xml:space="preserve" transform="matrix(1 0 -0 1 62.57143 357.6877)" font-size="8" font-family="Menlo"><tspan y="0" x="207.1055"> </tspan></text>
</g>
</g>
</g>
<g id="Layer-2" data-name="P">
<g id="Layer-3" data-name="P">
<text xml:space="preserve" transform="matrix(1 0 -0 1 54 367.2346)" font-size="8" font-family="Helvetica"><tspan y="0" x="0">&#x25cf;</tspan></text>
</g>
<g id="Layer-3" data-name="P">
<text xml:space="preserve" transform="matrix(1 0 -0 1 62.57143 366.6877)" font-size="8" font-family="Menlo"><tspan y="0" x="0 4.8168008 9.633601 14.450401 19.267203 24.084004 28.900805 33.717607 38.534406 43.351205 48.168004 52.984804 57.8016 62.6184 67.4352 72.25201 77.06881 81.88561 86.702419 91.51922 96.33602 101.152828 105.96963 110.78643 115.60323 120.42004 125.23684 130.05364 134.87044 139.68724 144.50405 149.32085 154.13765 158.95446 163.77126 168.58806 173.40486 178.22167 183.03847 187.85527 192.67208 197.48888 202.30568 207.12248 211.93929 216.75609 221.57289 226.3897 231.2065 236.0233 240.8401 245.6569 250.47371 255.29051 260.1073 264.9241 269.7409 274.5577 279.3745 284.1913 289.00813 293.82493 298.64173 303.45854 308.27534 313.09214 317.90895 322.72575 327.54255 332.35935 337.17616 341.99296 346.80976 351.62657 356.44337 361.26017 366.07698 370.89378 375.71058 380.52738 385.34419 390.16099 394.97779 399.7946 404.6114 409.4282 414.245 419.0618 423.8786 428.6954 433.5122 438.329 443.1458 447.96263 452.77943 457.59623 462.41304 467.22984 472.04664 476.86344 481.68025 486.49705 491.31385 496.13066">Set up automated unit testing environment and wrote unit tests for frontend and backend functions using </tspan></text>
<text xml:space="preserve" transform="matrix(1 0 -0 1 62.57143 375.6877)" font-size="8" font-family="Menlo"><tspan y="0" x="0 4.8168008 9.633601 14.450401 19.267203 24.084004 28.900805 33.717607 38.534406 43.351205 48.168004 52.984804 57.8016 62.6184 67.4352 72.25201 77.06881 81.88561 86.702419 91.51922 96.33602 101.152828 105.96963 110.78643 115.60323 120.42004 125.23684 130.05364 134.87044 139.68724 144.50405 149.32085 154.13765 158.95446 163.77126 168.58806 173.40486 178.22167 183.03847 187.85527 192.67208 197.48888 202.30568 207.12248 211.93929 216.75609 221.57289 226.3897 231.2065 236.0233 240.8401 245.6569 250.47371 255.29051 260.1073 264.9241 269.7409 274.5577 279.3745 284.1913 289.00813 293.82493 298.64173 303.45854 308.27534 313.09214 317.90895 322.72575 327.54255 332.35935 337.17616 341.99296 346.80976 351.62657 356.44337 361.26017 366.07698 370.89378 375.71058 380.52738 385.34419 390.16099 394.97779 399.7946 404.6114">Mocha and Jest for Qade, a gaming platform, and increased QA productivity by over 50%</tspan></text>
<g id="Layer-4" data-name="Span">
<text xml:space="preserve" transform="matrix(1 0 -0 1 62.57143 375.6877)" font-size="10" font-family="TimesNewRomanPSMT"><tspan y="0" x="409.3945"> </tspan></text>
</g>
</g>
</g>
</g>
<g id="Layer-1" data-name="P">
<text xml:space="preserve" transform="matrix(1 0 -0 1 36 397.5944)" font-size="10" font-family="ProximaNova" font-weight="bold"><tspan y="0" x="0 8.55 13.540001 19.900002 22.430003 28.220004 32.990007 38.520006 43.650007 46.210008 52.670007 55.230009 62.100008 67.840007 76.36 82.21 87.64 93.43">McKinsey &#x0026; Company</tspan></text>
<g id="Layer-2" data-name="Span">
<text xml:space="preserve" transform="matrix(1 0 -0 1 36 397.5944)" font-size="10" font-family="ProximaNova" font-weight="bold"><tspan y="0" x="98.56"> </tspan></text>
</g>
<g id="Layer-2" data-name="Span">
<text xml:space="preserve" transform="matrix(1 0 -0 1 36 397.5944)" font-size="10" font-family="TimesNewRomanPS" font-weight="bold"><tspan y="0" x="112"> </tspan></text>
</g>
<g id="Layer-2" data-name="Span">
<text xml:space="preserve" transform="matrix(1 0 -0 1 36 397.5944)" font-size="10" font-family="TimesNewRomanPS" font-weight="bold"><tspan y="0" x="140"> </tspan></text>
</g>
<g id="Layer-2" data-name="Span">
<text xml:space="preserve" transform="matrix(1 0 -0 1 36 397.5944)" font-size="10" font-family="TimesNewRomanPS" font-weight="bold"><tspan y="0" x="168"> </tspan></text>
</g>
<g id="Layer-2" data-name="Span">
<text xml:space="preserve" transform="matrix(1 0 -0 1 36 397.5944)" font-size="10" font-family="TimesNewRomanPS" font-weight="bold"><tspan y="0" x="196"> </tspan></text>
</g>
<g id="Layer-2" data-name="Span">
<text xml:space="preserve" transform="matrix(1 0 -0 1 36 397.5944)" font-size="10" font-family="TimesNewRomanPS" font-weight="bold"><tspan y="0" x="224"> </tspan></text>
</g>
<g id="Layer-2" data-name="Span">
<text xml:space="preserve" transform="matrix(1 0 -0 1 36 397.5944)" font-size="10" font-family="TimesNewRomanPS" font-weight="bold"><tspan y="0" x="252"> </tspan></text>
</g>
<g id="Layer-2" data-name="Span">
<text xml:space="preserve" transform="matrix(1 0 -0 1 36 397.5944)" font-size="10" font-family="TimesNewRomanPS" font-weight="bold"><tspan y="0" x="280"> </tspan></text>
</g>
<g id="Layer-2" data-name="Span">
<text xml:space="preserve" transform="matrix(1 0 -0 1 36 397.5944)" font-size="10" font-family="TimesNewRomanPS" font-weight="bold"><tspan y="0" x="308"> </tspan></text>
</g>
<g id="Layer-2" data-name="Span">
<text xml:space="preserve" transform="matrix(1 0 -0 1 36 397.5944)" font-size="10" font-family="TimesNewRomanPS" font-weight="bold"><tspan y="0" x="336"> </tspan></text>
</g>
<g id="Layer-2" data-name="Span">
<text xml:space="preserve" transform="matrix(1 0 -0 1 36 397.5944)" font-size="10" font-family="TimesNewRomanPS" font-weight="bold"><tspan y="0" x="360"> </tspan></text>
</g>
<text xml:space="preserve" transform="matrix(1 0 -0 1 36 397.5944)" font-size="10" font-family="TimesNewRomanPS" font-weight="bold"><tspan y="0" x="396 398.5 401 403.5 406 408.5 411 413.5 416 418.5 421 423.5 426 428.5 431 433.5 436 438.5 441 443.5 446 448.5 451 453.5 456 458.5 461 463.5">                            </tspan></text>
<text xml:space="preserve" transform="matrix(1 0 -0 1 36 397.5944)" font-size="8" font-family="Menlo"><tspan y="0" x="466 470.8168 475.6336 480.4504 485.2672 490.084 494.90083 499.71763 504.53443 509.35124 514.168 518.9848 523.8016 528.61837 533.4351 538.2519">Shanghai, China </tspan></text>
<text xml:space="preserve" transform="matrix(1 0 -0 1 36 408.1125)" font-size="8" font-family="Menlo" font-style="italic"><tspan y="0" x="0 4.8168008 9.633601 14.450401 19.267203 24.084004 28.900805 33.717607 38.534406 43.351205 48.168004 52.984804 57.8016 62.6184 67.4352">Research Intern</tspan></text>
<g id="Layer-2" data-name="Span">
<text xml:space="preserve" transform="matrix(1 0 -0 1 36 408.1125)" font-size="8" font-family="Menlo"><tspan y="0" x="72.24609"> </tspan></text>
</g>
<g id="Layer-2" data-name="Span">
<text xml:space="preserve" transform="matrix(1 0 -0 1 36 408.1125)" font-size="8" font-family="Menlo"><tspan y="0" x="84"> </tspan></text>
</g>
<g id="Layer-2" data-name="Span">
<text xml:space="preserve" transform="matrix(1 0 -0 1 36 408.1125)" font-size="8" font-family="Menlo"><tspan y="0" x="112"> </tspan></text>
</g>
<g id="Layer-2" data-name="Span">
<text xml:space="preserve" transform="matrix(1 0 -0 1 36 408.1125)" font-size="8" font-family="Menlo"><tspan y="0" x="140"> </tspan></text>
</g>
<g id="Layer-2" data-name="Span">
<text xml:space="preserve" transform="matrix(1 0 -0 1 36 408.1125)" font-size="8" font-family="Menlo"><tspan y="0" x="168"> </tspan></text>
</g>
<g id="Layer-2" data-name="Span">
<text xml:space="preserve" transform="matrix(1 0 -0 1 36 408.1125)" font-size="8" font-family="Menlo"><tspan y="0" x="196"> </tspan></text>
</g>
<g id="Layer-2" data-name="Span">
<text xml:space="preserve" transform="matrix(1 0 -0 1 36 408.1125)" font-size="8" font-family="Menlo"><tspan y="0" x="224"> </tspan></text>
</g>
<g id="Layer-2" data-name="Span">
<text xml:space="preserve" transform="matrix(1 0 -0 1 36 408.1125)" font-size="8" font-family="Menlo"><tspan y="0" x="252"> </tspan></text>
</g>
<text xml:space="preserve" transform="matrix(1 0 -0 1 36 408.1125)" font-size="8" font-family="Menlo"><tspan y="0" x="280 284.8168 289.6336 294.4504 299.2672 304.084 308.90083 313.71763 318.53443 323.35124 328.16804 332.98484 337.80165 342.61845 347.43525 352.25205 357.06886 361.88566 366.70246 371.51927 376.33607 381.15287 385.96968 390.78648 395.60328 400.42008 405.23689">                           </tspan></text>
<text xml:space="preserve" transform="matrix(1 0 -0 1 36 408.1125)" font-size="8" font-family="Menlo" font-style="italic"><tspan y="0" x="410.043 414.8598 419.6766 424.4934 429.3102 434.127 438.94383 443.76063 448.57743 453.39424 458.21104 463.02784 467.84465 472.66145 477.47825 482.29505 487.11186 491.92866 496.74546 501.56227 506.37907 511.19587 516.01266 520.8294 525.6462 530.46298">June 2018 - September 2018</tspan></text>
<g id="Layer-2" data-name="Span">
<text xml:space="preserve" transform="matrix(1 0 -0 1 36 408.1125)" font-size="8" font-family="Menlo"><tspan y="0" x="535.2695"> </tspan></text>
</g>
</g>
<g id="Layer-1" data-name="P">
<g id="Layer-2" data-name="P">
<g id="Layer-3" data-name="P">
<text xml:space="preserve" transform="matrix(1 0 -0 1 54 417.6594)" font-size="8" font-family="Helvetica"><tspan y="0" x="0">&#x25cf;</tspan></text>
</g>
<g id="Layer-3" data-name="P">
<text xml:space="preserve" transform="matrix(1 0 -0 1 63 417.1125)" font-size="8" font-family="Menlo"><tspan y="0" x="0 4.8168008 9.633601 14.450401 19.267203 24.084004 28.900805 33.717607 38.534406 43.351205 48.168004 52.984804 57.8016 62.6184 67.4352 72.25201 77.06881 81.88561 86.702419 91.51922 96.33602 101.152828 105.96963 110.78643 115.60323 120.42004 125.23684 130.05364 134.87044 139.68724 144.50405 149.32085 154.13765 158.95446 163.77126 168.58806 173.40486 178.22167 183.03847 187.85527 192.67208 197.48888 202.30568 207.12248 211.93929 216.75609 221.57289 226.3897 231.2065 236.0233 240.8401 245.6569 250.47371 255.29051 260.1073 264.9241 269.7409 274.5577 279.3745 284.1913 289.00813 293.82493 298.64173 303.45854 308.27534 313.09214 317.90895 322.72575 327.54255 332.35935 337.17616 341.99296 346.80976 351.62657 356.44337 361.26017 366.07698 370.89378 375.71058 380.52738 385.34419 390.16099 394.97779 399.7946 404.6114 409.4282 414.245 419.0618 423.8786 428.6954 433.5122 438.329 443.1458 447.96263">Conducted market research on upcoming Chinese retail trends such as unmanned and pop-up stores</tspan></text>
<g id="Layer-4" data-name="Span">
<text xml:space="preserve" transform="matrix(1 0 -0 1 63 417.1125)" font-size="8" font-family="Menlo"><tspan y="0" x="452.7422"> </tspan></text>
</g>
</g>
</g>
<g id="Layer-2" data-name="P">
<g id="Layer-3" data-name="P">
<text xml:space="preserve" transform="matrix(1 0 -0 1 54 428.0094)" font-size="8" font-family="Helvetica"><tspan y="0" x="0">&#x25cf;</tspan></text>
</g>
<g id="Layer-3" data-name="P">
<text xml:space="preserve" transform="matrix(1 0 -0 1 63 427.4625)" font-size="8" font-family="Menlo"><tspan y="0" x="0 4.8168008 9.633601 14.450401 19.267203 24.084004 28.900805 33.717607 38.534406 43.351205 48.168004 52.984804 57.8016 62.6184 67.4352 72.25201 77.06881 81.88561 86.702419 91.51922 96.33602 101.152828 105.96963 110.78643 115.60323 120.42004 125.23684 130.05364 134.87044 139.68724 144.50405 149.32085 154.13765 158.95446 163.77126 168.58806 173.40486 178.22167 183.03847 187.85527 192.67208 197.48888 202.30568 207.12248 211.93929 216.75609 221.57289 226.3897 231.2065 236.0233 240.8401 245.6569 250.47371 255.29051 260.1073 264.9241 269.7409 274.5577 279.3745 284.1913 289.00813 293.82493 298.64173 303.45854 308.27534 313.09214 317.90895 322.72575 327.54255 332.35935 337.17616 341.99296 346.80976 351.62657 356.44337 361.26017 366.07698 370.89378 375.71058 380.52738 385.34419 390.16099 394.97779 399.7946 404.6114 409.4282 414.245 419.0618 423.8786 428.6954 433.5122 438.329 443.1458 447.96263 452.77943">Wrote scripts to automate prospecting process and data analysis to increase productivity by 23%</tspan></text>
<g id="Layer-4" data-name="Span">
<text xml:space="preserve" transform="matrix(1 0 -0 1 63 427.4625)" font-size="8" font-family="Cambria"><tspan y="0" x="457.5586">&#x0009;</tspan></text>
</g>
</g>
</g>
</g>
<g id="Layer-1" data-name="P">
<g id="Layer-2" data-name="P">
<text xml:space="preserve" transform="matrix(1 0 -0 1 36 445.4374)" font-size="10" font-family="ProximaNova" font-weight="bold"><tspan y="0" x="0 6 11.74 16.73 19.26 24.69 27.220002 29.78 38.33 43.86 49.72 52.25 57.68 60.24 62.980005">Social Media In</tspan></text>
<g id="Layer-3" data-name="Span">
<text xml:space="preserve" transform="matrix(1 0 -0 1 36 445.4374)" font-size="10" font-family="ProximaNova" font-weight="bold"><tspan y="0" x="68.77">&#xfb02;</tspan></text>
</g>
<text xml:space="preserve" transform="matrix(1 0 -0 1 36 445.4374)" font-size="10" font-family="ProximaNova" font-weight="bold"><tspan y="0" x="74.57 80.36 85.89 91.68 96.67 102.2">uencer</tspan></text>
<g id="Layer-3" data-name="Span">
<text xml:space="preserve" transform="matrix(1 0 -0 1 36 445.4374)" font-size="10" font-family="ProximaNova" font-weight="bold"><tspan y="0" x="105.8"> </tspan></text>
</g>
</g>
<g id="Layer-2" data-name="P">
<g id="Layer-3" data-name="Span">
<text xml:space="preserve" transform="matrix(1 0 -0 1 36 445.4374)" font-size="10.5" font-family="TimesNewRomanPS" font-weight="bold"><tspan y="0" x="112"> </tspan></text>
</g>
</g>
<g id="Layer-2" data-name="P">
<g id="Layer-3" data-name="Span">
<text xml:space="preserve" transform="matrix(1 0 -0 1 36 445.4374)" font-size="10" font-family="TimesNewRomanPS" font-weight="bold"><tspan y="0" x="140"> </tspan></text>
</g>
<g id="Layer-3" data-name="Span">
<text xml:space="preserve" transform="matrix(1 0 -0 1 36 445.4374)" font-size="10" font-family="TimesNewRomanPS" font-weight="bold"><tspan y="0" x="168"> </tspan></text>
</g>
<g id="Layer-3" data-name="Span">
<text xml:space="preserve" transform="matrix(1 0 -0 1 36 445.4374)" font-size="10" font-family="TimesNewRomanPS" font-weight="bold"><tspan y="0" x="196"> </tspan></text>
</g>
<g id="Layer-3" data-name="Span">
<text xml:space="preserve" transform="matrix(1 0 -0 1 36 445.4374)" font-size="10" font-family="TimesNewRomanPS" font-weight="bold"><tspan y="0" x="224"> </tspan></text>
</g>
<g id="Layer-3" data-name="Span">
<text xml:space="preserve" transform="matrix(1 0 -0 1 36 445.4374)" font-size="10" font-family="TimesNewRomanPS" font-weight="bold"><tspan y="0" x="252"> </tspan></text>
</g>
<g id="Layer-3" data-name="Span">
<text xml:space="preserve" transform="matrix(1 0 -0 1 36 445.4374)" font-size="10" font-family="TimesNewRomanPS" font-weight="bold"><tspan y="0" x="280"> </tspan></text>
</g>
<g id="Layer-3" data-name="Span">
<text xml:space="preserve" transform="matrix(1 0 -0 1 36 445.4374)" font-size="10" font-family="TimesNewRomanPS" font-weight="bold"><tspan y="0" x="308"> </tspan></text>
</g>
<g id="Layer-3" data-name="Span">
<text xml:space="preserve" transform="matrix(1 0 -0 1 36 445.4374)" font-size="10" font-family="TimesNewRomanPS" font-weight="bold"><tspan y="0" x="336"> </tspan></text>
</g>
<g id="Layer-3" data-name="Span">
<text xml:space="preserve" transform="matrix(1 0 -0 1 36 445.4374)" font-size="10" font-family="TimesNewRomanPS" font-weight="bold"><tspan y="0" x="360"> </tspan></text>
</g>
<g id="Layer-3" data-name="Span">
<text xml:space="preserve" transform="matrix(1 0 -0 1 36 445.4374)" font-size="10" font-family="TimesNewRomanPS" font-weight="bold"><tspan y="0" x="396"> </tspan></text>
</g>
<g id="Layer-3" data-name="Span">
<text xml:space="preserve" transform="matrix(1 0 -0 1 36 445.4374)" font-size="10" font-family="TimesNewRomanPS" font-weight="bold"><tspan y="0" x="432"> </tspan></text>
</g>
<text xml:space="preserve" transform="matrix(1 0 -0 1 36 445.4374)" font-size="10" font-family="TimesNewRomanPS" font-weight="bold"><tspan y="0" x="468 470.5 473 475.5 478">     </tspan></text>
</g>
<g id="Layer-2" data-name="P">
<text xml:space="preserve" transform="matrix(1 0 -0 1 36 445.4374)" font-size="8" font-family="Menlo"><tspan y="0" x="480.5 485.3168 490.1336 494.9504 499.7672 504.584 509.40083 514.2176 519.03439 523.85116 528.6679 533.4847 538.30148">Evanston, IL </tspan></text>
</g>
<g id="Layer-2" data-name="P">
<text xml:space="preserve" transform="matrix(1 0 -0 1 36 455.9767)" font-size="8" font-family="Menlo" font-style="italic"><tspan y="0" x="0 4.8168008 9.633601 14.450401 19.267203 24.084004 28.900805 33.717607 38.534406 43.351205 48.168004 52.984804 57.8016 62.6184 67.4352 72.25201 77.06881 81.88561 86.702419 91.51922 96.33602 101.152828 105.96963 110.78643 115.60323 120.42004 125.23684 130.05364 134.87044 139.68724 144.50405 149.32085 154.13765 158.95446 163.77126 168.58806">Social Media Influencer and Artist (</tspan></text>
</g>
<g id="Layer-2" data-name="P">
<text xml:space="preserve" transform="matrix(1 0 -0 1 36 455.9767)" font-size="8" font-family="Menlo"><tspan y="0" x="173.3906 178.2074 183.0242 187.841 192.6578 197.47461 202.29141 207.10822 211.92502 216.74182 221.55863 226.37543 231.19223 236.00904 240.82584 245.64264 250.45944 255.27625 260.09306 264.90986 269.72666 274.54347 279.36027 284.17707 288.99388">www.instagram.com/fingees</tspan></text>
</g>
<g id="Layer-2" data-name="P">
<text xml:space="preserve" transform="matrix(1 0 -0 1 36 455.9767)" font-size="8" font-family="Menlo" font-style="italic"><tspan y="0" x="293.8008">)</tspan></text>
<g id="Layer-3" data-name="Span">
<text xml:space="preserve" transform="matrix(1 0 -0 1 36 455.9767)" font-size="8" font-family="Menlo" font-style="italic"><tspan y="0" x="298.6172"> </tspan></text>
</g>
<g id="Layer-3" data-name="Span">
<text xml:space="preserve" transform="matrix(1 0 -0 1 36 455.9767)" font-size="8" font-family="Menlo" font-style="italic"><tspan y="0" x="308"> </tspan></text>
</g>
<g id="Layer-3" data-name="Span">
<text xml:space="preserve" transform="matrix(1 0 -0 1 36 455.9767)" font-size="8" font-family="Menlo" font-style="italic"><tspan y="0" x="336"> </tspan></text>
</g>
<g id="Layer-3" data-name="Span">
<text xml:space="preserve" transform="matrix(1 0 -0 1 36 455.9767)" font-size="8" font-family="Menlo" font-style="italic"><tspan y="0" x="360"> </tspan></text>
</g>
<g id="Layer-3" data-name="Span">
<text xml:space="preserve" transform="matrix(1 0 -0 1 36 455.9767)" font-size="8" font-family="Menlo" font-style="italic"><tspan y="0" x="396"> </tspan></text>
</g>
<g id="Layer-3" data-name="Span">
<text xml:space="preserve" transform="matrix(1 0 -0 1 36 455.9767)" font-size="8" font-family="Menlo" font-style="italic"><tspan y="0" x="432"> </tspan></text>
</g>
<text xml:space="preserve" transform="matrix(1 0 -0 1 36 455.9767)" font-size="8" font-family="Menlo" font-style="italic"><tspan y="0" x="468 472.8168 477.6336 482.4504 487.2672 492.084 496.90083 501.71763 506.53443 511.35124 516.168 520.9848 525.8016 530.61837">   2018 - 2022</tspan></text>
</g>
<g id="Layer-2" data-name="P">
<g id="Layer-3" data-name="Span">
<text xml:space="preserve" transform="matrix(1 0 -0 1 36 455.9767)" font-size="8" font-family="Menlo"><tspan y="0" x="535.4297"> </tspan></text>
</g>
</g>
</g>
<g id="Layer-1" data-name="P">
<g id="Layer-2" data-name="P">
<g id="Layer-3" data-name="P">
<text xml:space="preserve" transform="matrix(1 0 -0 1 54 465.5236)" font-size="8" font-family="Helvetica"><tspan y="0" x="0">&#x25cf;</tspan></text>
</g>
<g id="Layer-3" data-name="P">
<text xml:space="preserve" transform="matrix(1 0 -0 1 63 464.9767)" font-size="8" font-family="Menlo"><tspan y="0" x="0 4.8168008 9.633601 14.450401 19.267203 24.084004 28.900805 33.717607 38.534406 43.351205 48.168004 52.984804 57.8016 62.6184 67.4352 72.25201 77.06881 81.88561 86.702419 91.51922 96.33602 101.152828 105.96963 110.78643 115.60323 120.42004 125.23684 130.05364 134.87044 139.68724 144.50405 149.32085 154.13765 158.95446 163.77126 168.58806 173.40486 178.22167 183.03847 187.85527 192.67208 197.48888 202.30568 207.12248 211.93929 216.75609 221.57289 226.3897 231.2065 236.0233 240.8401 245.6569 250.47371 255.29051 260.1073 264.9241 269.7409 274.5577 279.3745 284.1913 289.00813 293.82493 298.64173 303.45854 308.27534 313.09214 317.90895 322.72575 327.54255 332.35935 337.17616 341.99296 346.80976 351.62657 356.44337 361.26017 366.07698 370.89378 375.71058 380.52738 385.34419 390.16099 394.97779 399.7946 404.6114 409.4282 414.245 419.0618 423.8786 428.6954 433.5122 438.329 443.1458 447.96263 452.77943 457.59623 462.41304 467.22984 472.04664 476.86344 481.68025 486.49705 491.31385 496.13066 500.94746">Executed original concepts for marketing campaigns on various social media channels for myself and other </tspan></text>
<text xml:space="preserve" transform="matrix(1 0 -0 1 63 475.3267)" font-size="8" font-family="Menlo"><tspan y="0" x="0 4.8168008 9.633601 14.450401 19.267203 24.084004 28.900805 33.717607 38.534406 43.351205 48.168004 52.984804">influencers </tspan></text>
<g id="Layer-4" data-name="Span">
<text xml:space="preserve" transform="matrix(1 0 -0 1 63 475.3267)" font-size="8" font-family="Menlo"><tspan y="0" x="57.79688"> </tspan></text>
</g>
</g>
</g>
<g id="Layer-2" data-name="P">
<g id="Layer-3" data-name="P">
<text xml:space="preserve" transform="matrix(1 0 -0 1 54 486.2236)" font-size="8" font-family="Helvetica"><tspan y="0" x="0">&#x25cf;</tspan></text>
</g>
<g id="Layer-3" data-name="P">
<text xml:space="preserve" transform="matrix(1 0 -0 1 63 485.6767)" font-size="8" font-family="Menlo"><tspan y="0" x="0 4.8168008 9.633601 14.450401 19.267203 24.084004 28.900805 33.717607 38.534406 43.351205 48.168004 52.984804 57.8016 62.6184 67.4352 72.25201 77.06881 81.88561 86.702419 91.51922 96.33602 101.152828 105.96963 110.78643 115.60323 120.42004 125.23684 130.05364 134.87044 139.68724 144.50405 149.32085 154.13765 158.95446 163.77126 168.58806 173.40486 178.22167 183.03847 187.85527 192.67208 197.48888 202.30568 207.12248 211.93929 216.75609 221.57289 226.3897 231.2065 236.0233 240.8401 245.6569 250.47371 255.29051 260.1073 264.9241 269.7409 274.5577">Created content reaching over 300,000 unique users / month</tspan></text>
<g id="Layer-4" data-name="Span">
<text xml:space="preserve" transform="matrix(1 0 -0 1 63 485.6767)" font-size="8" font-family="Menlo"><tspan y="0" x="279.3516"> </tspan></text>
</g>
</g>
</g>
</g>
<g id="Layer-1" data-name="P">
<text xml:space="preserve" transform="matrix(1 0 -0 1 36 512.9237)" font-size="12" font-family="ProximaNova"><tspan y="0" x="0 6.3480007 13.416001 21.780003 30.504004 37.572008 45.504007 52.776006 61.668008 65.172008 72.88801 75.96001 83.74801 86.82001 94.8 103.104007 110.172008 113.676 122.04 125.544 132.612 136.116 143.18399">LEADERSHIP &#x0026; ACTIVITIES</tspan></text>
<g id="Layer-2" data-name="Span">
<text xml:space="preserve" transform="matrix(1 0 -0 1 36 512.9237)" font-size="12" font-family="TimesNewRomanPS" font-weight="bold"><tspan y="0" x="150.456"> </tspan></text>
</g>
</g>
<g id="Layer-1" data-name="P">
<g id="Layer-2" data-name="Span">
<text xml:space="preserve" transform="matrix(1 0 -0 1 36 527.83377)" font-size="12" font-family="Cambria"><tspan y="0" x="0">&#x0009;</tspan></text>
</g>
</g>
<g id="Layer-1" data-name="P">
<text xml:space="preserve" transform="matrix(1 0 -0 1 36 539.5197)" font-size="10" font-family="ProximaNova" font-weight="bold"><tspan y="0" x="0 2.7400003 8.530001 13.300001 16.680003 19.210003 22.590004 28.380005 31.760006 37.290006 39.850008 43.120008 48.86001 52.460008 55.020009 60.910009 64.29001 70.08001 75.94001 81.47001 87.26001 90.64001 93.200008 99.83 105.62 110.39 112.92 118.71 124.24 129.01 133.78 136.34 142.17 148.03 153.81999 158.81 164.23999 167.62 170.15 175.89 181.68 184.23999 187.20999 189.95 195.95 202.58 208.41">Institute for Student Business Education (ISBE)</tspan></text>
<g id="Layer-2" data-name="Span">
<text xml:space="preserve" transform="matrix(1 0 -0 1 36 539.5197)" font-size="10" font-family="ProximaNova"><tspan y="0" x="211.38"> </tspan></text>
</g>
<g id="Layer-2" data-name="Span">
<text xml:space="preserve" transform="matrix(1 0 -0 1 36 539.5197)" font-size="10" font-family="TimesNewRomanPSMT"><tspan y="0" x="224"> </tspan></text>
</g>
<g id="Layer-2" data-name="Span">
<text xml:space="preserve" transform="matrix(1 0 -0 1 36 539.5197)" font-size="10" font-family="TimesNewRomanPSMT"><tspan y="0" x="252"> </tspan></text>
</g>
<g id="Layer-2" data-name="Span">
<text xml:space="preserve" transform="matrix(1 0 -0 1 36 539.5197)" font-size="10" font-family="TimesNewRomanPSMT"><tspan y="0" x="280"> </tspan></text>
</g>
<g id="Layer-2" data-name="Span">
<text xml:space="preserve" transform="matrix(1 0 -0 1 36 539.5197)" font-size="10" font-family="TimesNewRomanPSMT"><tspan y="0" x="308"> </tspan></text>
</g>
<text xml:space="preserve" transform="matrix(1 0 -0 1 36 539.5197)" font-size="10" font-family="TimesNewRomanPSMT"><tspan y="0" x="336 338.5 341 343.5 346">     </tspan></text>
<g id="Layer-2" data-name="Span">
<text xml:space="preserve" transform="matrix(1 0 -0 1 36 539.5197)" font-size="10" font-family="TimesNewRomanPSMT"><tspan y="0" x="348.5"> </tspan></text>
</g>
<text xml:space="preserve" transform="matrix(1 0 -0 1 36 539.5197)" font-size="10" font-family="TimesNewRomanPSMT"><tspan y="0" x="360 362.5 365 367.5 370 372.5 375 377.5 380 382.5 385 387.5 390 392.5 395 397.5 400 402.5 405 407.5 410 412.5 415 417.5 420 422.5 425 427.5 430 432.5 435 437.5 440 442.5 445 447.5 450 452.5 455 457.5 460 462.5 465 467.5 470 472.5 475 477.5">                                                </tspan></text>
<text xml:space="preserve" transform="matrix(1 0 -0 1 36 539.5197)" font-size="8" font-family="Menlo"><tspan y="0" x="480 484.8168 489.6336 494.4504 499.2672 504.084 508.90083 513.7176 518.53439 523.35116 528.1679 532.9847">Evanston, IL</tspan></text>
<g id="Layer-2" data-name="Span">
<text xml:space="preserve" transform="matrix(1 0 -0 1 36 539.5197)" font-size="8" font-family="Menlo" font-weight="bold" font-style="italic"><tspan y="0" x="537.7969"> </tspan></text>
</g>
</g>
<g id="Layer-1" data-name="P">
<text xml:space="preserve" transform="matrix(1 0 -0 1 36 550.0378)" font-size="8" font-family="Menlo" font-style="italic"><tspan y="0" x="0 4.8168008 9.633601 14.450401 19.267203 24.084004 28.900805 33.717607 38.534406 43.351205 48.168004 52.984804 57.8016 62.6184 67.4352 72.25201 77.06881 81.88561 86.702419 91.51922 96.33602 101.152828 105.96963 110.78643 115.60323 120.42004 125.23684 130.05364 134.87044 139.68724 144.50405 149.32085 154.13765 158.95446 163.77126 168.58806 173.40486 178.22167 183.03847 187.85527 192.67208 197.48888 202.30568 207.12248 211.93929 216.75609 221.57289 226.3897 231.2065 236.0233 240.8401 245.6569 250.47371 255.29051 260.1073 264.9241 269.7409 274.5577 279.3745 284.1913 289.00813 293.82493 298.64173 303.45854 308.27534 313.09214 317.90895 322.72575 327.54255 332.35935 337.17616 341.99296 346.80976 351.62657 356.44337 361.26017 366.07698 370.89378 375.71058 380.52738 385.34419 390.16099 394.97779 399.7946 404.6114 409.4282 414.245 419.0618 423.8786 428.6954 433.5122 438.329 443.1458 447.96263 452.77943 457.59623 462.41304 467.22984 472.04664 476.86344 481.68025 486.49705 491.31385 496.13066 500.94746 505.76426 510.58106 515.3978 520.2146 525.0314 529.84817 534.6649">Team Lead for Business Development                                                      September 2019 - Present</tspan></text>
<g id="Layer-2" data-name="Span">
<text xml:space="preserve" transform="matrix(1 0 -0 1 36 550.0378)" font-size="8" font-family="Menlo"><tspan y="0" x="539.4375"> </tspan></text>
</g>
</g>
<g id="Layer-1" data-name="P">
<g id="Layer-2" data-name="P">
<g id="Layer-3" data-name="P">
<text xml:space="preserve" transform="matrix(1 0 -0 1 52.65 559.5846)" font-size="8" font-family="Helvetica"><tspan y="0" x="0">&#x25cf;</tspan></text>
</g>
<g id="Layer-3" data-name="P">
<text xml:space="preserve" transform="matrix(1 0 -0 1 63 559.0378)" font-size="8" font-family="Menlo"><tspan y="0" x="0 4.8168008 9.633601 14.450401 19.267203 24.084004 28.900805 33.717607 38.534406 43.351205 48.168004 52.984804 57.8016 62.6184 67.4352 72.25201 77.06881 81.88561 86.702419 91.51922 96.33602 101.152828 105.96963 110.78643 115.60323 120.42004 125.23684 130.05364 134.87044 139.68724 144.50405 149.32085 154.13765 158.95446 163.77126 168.58806 173.40486 178.22167 183.03847 187.85527 192.67208 197.48888 202.30568 207.12248 211.93929 216.75609 221.57289 226.3897 231.2065 236.0233 240.8401 245.6569 250.47371 255.29051 260.1073 264.9241 269.7409 274.5577 279.3745 284.1913 289.00813 293.82493 298.64173 303.45854 308.27534 313.09214 317.90895 322.72575 327.54255 332.35935 337.17616 341.99296 346.80976 351.62657 356.44337 361.26017 366.07698 370.89378 375.71058 380.52738 385.34419 390.16099 394.97779 399.7946 404.6114 409.4282 414.245 419.0618 423.8786 428.6954 433.5122 438.329 443.1458 447.96263 452.77943 457.59623 462.41304 467.22984 472.04664 476.86344 481.68025 486.49705 491.31385 496.13066 500.94746 505.76426 510.58106">Worked with startups to design and develop iOS and web application MVPs, two of which later received first </tspan></text>
<text xml:space="preserve" transform="matrix(1 0 -0 1 63 569.3878)" font-size="8" font-family="Menlo"><tspan y="0" x="0 4.8168008 9.633601 14.450401 19.267203 24.084004 28.900805 33.717607 38.534406 43.351205 48.168004 52.984804 57.8016">round funding</tspan></text>
<g id="Layer-4" data-name="Span">
<text xml:space="preserve" transform="matrix(1 0 -0 1 63 569.3878)" font-size="8" font-family="Menlo"><tspan y="0" x="62.61328"> </tspan></text>
</g>
</g>
</g>
<g id="Layer-2" data-name="P">
<g id="Layer-3" data-name="P">
<text xml:space="preserve" transform="matrix(1 0 -0 1 52.65 580.2846)" font-size="8" font-family="Helvetica"><tspan y="0" x="0">&#x25cf;</tspan></text>
</g>
<g id="Layer-3" data-name="P">
<text xml:space="preserve" transform="matrix(1 0 -0 1 63 579.7378)" font-size="8" font-family="Menlo"><tspan y="0" x="0 4.8168008 9.633601 14.450401 19.267203 24.084004 28.900805 33.717607 38.534406 43.351205 48.168004 52.984804 57.8016 62.6184 67.4352 72.25201 77.06881 81.88561 86.702419 91.51922 96.33602 101.152828 105.96963 110.78643 115.60323 120.42004 125.23684 130.05364 134.87044 139.68724 144.50405 149.32085 154.13765 158.95446 163.77126 168.58806 173.40486 178.22167 183.03847 187.85527 192.67208 197.48888 202.30568 207.12248 211.93929 216.75609 221.57289 226.3897 231.2065 236.0233 240.8401 245.6569 250.47371 255.29051 260.1073 264.9241 269.7409 274.5577 279.3745 284.1913 289.00813 293.82493 298.64173 303.45854 308.27534 313.09214 317.90895 322.72575 327.54255 332.35935 337.17616 341.99296 346.80976 351.62657 356.44337 361.26017 366.07698 370.89378 375.71058 380.52738 385.34419 390.16099 394.97779 399.7946 404.6114 409.4282 414.245 419.0618 423.8786 428.6954 433.5122 438.329 443.1458 447.96263 452.77943 457.59623 462.41304">Worked with local businesses to build Single Page Applications in React and improve SEO and site </tspan></text>
<text xml:space="preserve" transform="matrix(1 0 -0 1 63 590.08779)" font-size="8" font-family="Menlo"><tspan y="0" x="0 4.8168008 9.633601 14.450401 19.267203 24.084004 28.900805 33.717607 38.534406 43.351205 48.168004 52.984804 57.8016 62.6184 67.4352 72.25201 77.06881 81.88561 86.702419 91.51922 96.33602 101.152828 105.96963 110.78643">performance by over 110%</tspan></text>
<g id="Layer-4" data-name="Span">
<text xml:space="preserve" transform="matrix(1 0 -0 1 63 590.08779)" font-size="8" font-family="Menlo"><tspan y="0" x="115.5938"> </tspan></text>
</g>
</g>
</g>
<g id="Layer-2" data-name="P">
<g id="Layer-3" data-name="P">
<text xml:space="preserve" transform="matrix(1 0 -0 1 52.65 600.9846)" font-size="8" font-family="Helvetica"><tspan y="0" x="0">&#x25cf;</tspan></text>
</g>
<g id="Layer-3" data-name="P">
<text xml:space="preserve" transform="matrix(1 0 -0 1 63 600.4378)" font-size="8" font-family="Menlo"><tspan y="0" x="0 4.8168008 9.633601 14.450401 19.267203 24.084004 28.900805 33.717607 38.534406 43.351205 48.168004 52.984804 57.8016 62.6184 67.4352 72.25201 77.06881 81.88561 86.702419 91.51922 96.33602 101.152828 105.96963 110.78643 115.60323 120.42004 125.23684 130.05364 134.87044 139.68724 144.50405 149.32085 154.13765 158.95446 163.77126 168.58806 173.40486 178.22167 183.03847 187.85527 192.67208 197.48888 202.30568 207.12248 211.93929 216.75609 221.57289 226.3897 231.2065 236.0233 240.8401 245.6569 250.47371 255.29051 260.1073 264.9241 269.7409 274.5577 279.3745 284.1913 289.00813 293.82493 298.64173 303.45854 308.27534 313.09214 317.90895 322.72575 327.54255 332.35935 337.17616 341.99296 346.80976 351.62657 356.44337 361.26017 366.07698 370.89378 375.71058 380.52738 385.34419 390.16099 394.97779 399.7946 404.6114 409.4282 414.245 419.0618 423.8786 428.6954 433.5122 438.329 443.1458 447.96263 452.77943 457.59623">Led team of 8 to implement Agile framework methodologies and increase sprint productivity by 62%</tspan></text>
<g id="Layer-4" data-name="Span">
<text xml:space="preserve" transform="matrix(1 0 -0 1 63 600.4378)" font-size="8" font-family="Menlo" font-style="italic"><tspan y="0" x="462.375"> </tspan></text>
</g>
</g>
</g>
</g>
<g id="Layer-1" data-name="P">
<text xml:space="preserve" transform="matrix(1 0 -0 1 36 626.6945)" font-size="10" font-family="ProximaNova" font-weight="bold"><tspan y="0" x="0 5.7100007 11.450001 15.050001 23.570002 26.130002 32.59 35.15 40.86 46.65 52.440004 57.430006 60.810007 63.340005 69.08 74.87 77.43 85.98 91.41 95.01 100.15 105.68 109.06 111.59 117.38 123.229999 125.78999 132.65999 135.18999 140.97998">Form &#x0026; Function Marketing Club</tspan></text>
<g id="Layer-2" data-name="Span">
<text xml:space="preserve" transform="matrix(1 0 -0 1 36 626.6945)" font-size="10" font-family="ProximaNova" font-weight="bold"><tspan y="0" x="146.84"> </tspan></text>
</g>
<g id="Layer-2" data-name="Span">
<text xml:space="preserve" transform="matrix(1 0 -0 1 36 626.6945)" font-size="10" font-family="TimesNewRomanPS" font-weight="bold"><tspan y="0" x="168"> </tspan></text>
</g>
<g id="Layer-2" data-name="Span">
<text xml:space="preserve" transform="matrix(1 0 -0 1 36 626.6945)" font-size="10" font-family="TimesNewRomanPS" font-weight="bold"><tspan y="0" x="196"> </tspan></text>
</g>
<g id="Layer-2" data-name="Span">
<text xml:space="preserve" transform="matrix(1 0 -0 1 36 626.6945)" font-size="10" font-family="TimesNewRomanPS" font-weight="bold"><tspan y="0" x="216"> </tspan></text>
</g>
<g id="Layer-2" data-name="Span">
<text xml:space="preserve" transform="matrix(1 0 -0 1 36 626.6945)" font-size="10" font-family="TimesNewRomanPS" font-weight="bold"><tspan y="0" x="252"> </tspan></text>
</g>
<g id="Layer-2" data-name="Span">
<text xml:space="preserve" transform="matrix(1 0 -0 1 36 626.6945)" font-size="10" font-family="TimesNewRomanPS" font-weight="bold"><tspan y="0" x="288"> </tspan></text>
</g>
<g id="Layer-2" data-name="Span">
<text xml:space="preserve" transform="matrix(1 0 -0 1 36 626.6945)" font-size="10" font-family="TimesNewRomanPS" font-weight="bold"><tspan y="0" x="324"> </tspan></text>
</g>
<g id="Layer-2" data-name="Span">
<text xml:space="preserve" transform="matrix(1 0 -0 1 36 626.6945)" font-size="10" font-family="TimesNewRomanPS" font-weight="bold"><tspan y="0" x="360"> </tspan></text>
</g>
<g id="Layer-2" data-name="Span">
<text xml:space="preserve" transform="matrix(1 0 -0 1 36 626.6945)" font-size="10" font-family="TimesNewRomanPS" font-weight="bold"><tspan y="0" x="396"> </tspan></text>
</g>
<text xml:space="preserve" transform="matrix(1 0 -0 1 36 626.6945)" font-size="10" font-family="TimesNewRomanPS" font-weight="bold"><tspan y="0" x="432 434.5 437 439.5 442 444.5 447 449.5 452 454.5 457 459.5 462 464.5 467 469.5 472 474.5 477 479.5">                    </tspan></text>
<text xml:space="preserve" transform="matrix(1 0 -0 1 36 626.6945)" font-size="8" font-family="Menlo"><tspan y="0" x="482 486.8168 491.6336 496.4504 501.2672 506.084 510.90083 515.7176 520.53439 525.35116 530.1679 534.9847">Evanston, IL</tspan></text>
<g id="Layer-2" data-name="Span">
<text xml:space="preserve" transform="matrix(1 0 -0 1 36 626.6945)" font-size="8" font-family="Menlo"><tspan y="0" x="539.7969"> </tspan></text>
</g>
</g>
<g id="Layer-1" data-name="P">
<text xml:space="preserve" transform="matrix(1 0 -0 1 36 637.2126)" font-size="8" font-family="Menlo" font-style="italic"><tspan y="0" x="0 4.8168008 9.633601 14.450401 19.267203 24.084004 28.900805 33.717607 38.534406 43.351205 48.168004 52.984804 57.8016 62.6184 67.4352 72.25201 77.06881 81.88561 86.702419 91.51922 96.33602 101.152828 105.96963 110.78643 115.60323 120.42004 125.23684 130.05364 134.87044 139.68724 144.50405 149.32085">Vice President of Communication </tspan></text>
<g id="Layer-2" data-name="Span">
<text xml:space="preserve" transform="matrix(1 0 -0 1 36 637.2126)" font-size="8" font-family="Menlo" font-style="italic"><tspan y="0" x="154.125"> </tspan></text>
</g>
<text xml:space="preserve" transform="matrix(1 0 -0 1 36 637.2126)" font-size="8" font-family="Menlo" font-style="italic"><tspan y="0" x="168 172.8168 177.6336 182.45041 187.26721 192.08402 196.90082 201.71762 206.53443 211.35123 216.16803 220.98484 225.80164 230.61844 235.43524 240.25205 245.06885 249.88565">                  </tspan></text>
<g id="Layer-2" data-name="Span">
<text xml:space="preserve" transform="matrix(1 0 -0 1 36 637.2126)" font-size="8" font-family="Menlo" font-style="italic"><tspan y="0" x="254.6953"> </tspan></text>
</g>
<g id="Layer-2" data-name="Span">
<text xml:space="preserve" transform="matrix(1 0 -0 1 36 637.2126)" font-size="8" font-family="Menlo" font-style="italic"><tspan y="0" x="288"> </tspan></text>
</g>
<g id="Layer-2" data-name="Span">
<text xml:space="preserve" transform="matrix(1 0 -0 1 36 637.2126)" font-size="8" font-family="Menlo" font-style="italic"><tspan y="0" x="324"> </tspan></text>
</g>
<g id="Layer-2" data-name="Span">
<text xml:space="preserve" transform="matrix(1 0 -0 1 36 637.2126)" font-size="8" font-family="Menlo" font-style="italic"><tspan y="0" x="360"> </tspan></text>
</g>
<text xml:space="preserve" transform="matrix(1 0 -0 1 36 637.2126)" font-size="8" font-family="Menlo" font-style="italic"><tspan y="0" x="396 400.8168 405.6336 410.4504 415.2672 420.084 424.90083 429.71763 434.53443 439.35124 444.16804 448.98484 453.80165 458.61845 463.43525 468.25205 473.06886 477.88566 482.70246 487.51927 492.33607 497.15287 501.96968 506.78648 511.60328 516.42007 521.2368 526.0536 530.87039">September 2019 &#x2013; January 2021</tspan></text>
<g id="Layer-2" data-name="Span">
<text xml:space="preserve" transform="matrix(1 0 -0 1 36 637.2126)" font-size="8" font-family="Menlo" font-style="italic"><tspan y="0" x="535.6758"> </tspan></text>
</g>
</g>
<g id="Layer-1" data-name="P">
<g id="Layer-2" data-name="P">
<g id="Layer-3" data-name="P">
<text xml:space="preserve" transform="matrix(1 0 -0 1 54 646.7594)" font-size="8" font-family="Helvetica"><tspan y="0" x="0">&#x25cf;</tspan></text>
</g>
<g id="Layer-3" data-name="P">
<text xml:space="preserve" transform="matrix(1 0 -0 1 63 646.2126)" font-size="8" font-family="Menlo"><tspan y="0" x="0 4.8168008 9.633601 14.450401 19.267203 24.084004 28.900805 33.717607 38.534406 43.351205 48.168004 52.984804 57.8016 62.6184 67.4352 72.25201 77.06881 81.88561 86.702419 91.51922 96.33602 101.152828 105.96963 110.78643 115.60323 120.42004 125.23684 130.05364 134.87044 139.68724 144.50405 149.32085 154.13765 158.95446 163.77126 168.58806 173.40486 178.22167 183.03847 187.85527 192.67208 197.48888 202.30568 207.12248 211.93929 216.75609 221.57289 226.3897 231.2065 236.0233 240.8401 245.6569 250.47371 255.29051 260.1073 264.9241 269.7409 274.5577 279.3745 284.1913 289.00813 293.82493 298.64173 303.45854 308.27534 313.09214 317.90895 322.72575 327.54255 332.35935 337.17616 341.99296 346.80976 351.62657 356.44337 361.26017 366.07698 370.89378 375.71058 380.52738 385.34419 390.16099 394.97779 399.7946 404.6114 409.4282 414.245 419.0618 423.8786 428.6954 433.5122 438.329 443.1458 447.96263 452.77943 457.59623 462.41304 467.22984 472.04664 476.86344 481.68025 486.49705 491.31385 496.13066">Worked with local businesses to renew brand strategies and implement marketing campaigns that increased </tspan></text>
<text xml:space="preserve" transform="matrix(1 0 -0 1 63 656.1126)" font-size="8" font-family="Menlo"><tspan y="0" x="0 4.8168008 9.633601 14.450401 19.267203 24.084004 28.900805 33.717607 38.534406 43.351205 48.168004 52.984804 57.8016 62.6184 67.4352 72.25201 77.06881 81.88561 86.702419">sales by over 300% </tspan></text>
<g id="Layer-4" data-name="Span">
<text xml:space="preserve" transform="matrix(1 0 -0 1 63 656.1126)" font-size="8" font-family="Menlo"><tspan y="0" x="91.51172"> </tspan></text>
</g>
</g>
</g>
<g id="Layer-2" data-name="P">
<g id="Layer-3" data-name="P">
<text xml:space="preserve" transform="matrix(1 0 -0 1 54 666.5594)" font-size="8" font-family="Helvetica"><tspan y="0" x="0">&#x25cf;</tspan></text>
</g>
<g id="Layer-3" data-name="P">
<text xml:space="preserve" transform="matrix(1 0 -0 1 63 666.0126)" font-size="8" font-family="Menlo"><tspan y="0" x="0 4.8168008 9.633601 14.450401 19.267203 24.084004 28.900805 33.717607 38.534406 43.351205 48.168004 52.984804 57.8016 62.6184 67.4352 72.25201 77.06881 81.88561 86.702419 91.51922 96.33602 101.152828 105.96963 110.78643 115.60323 120.42004 125.23684 130.05364 134.87044 139.68724 144.50405 149.32085 154.13765 158.95446 163.77126 168.58806 173.40486 178.22167 183.03847 187.85527 192.67208 197.48888 202.30568 207.12248 211.93929 216.75609 221.57289 226.3897 231.2065 236.0233 240.8401 245.6569 250.47371 255.29051 260.1073 264.9241 269.7409 274.5577 279.3745 284.1913 289.00813 293.82493 298.64173 303.45854 308.27534 313.09214 317.90895 322.72575 327.54255 332.35935 337.17616 341.99296 346.80976 351.62657 356.44337 361.26017 366.07698 370.89378 375.71058 380.52738 385.34419 390.16099 394.97779 399.7946 404.6114 409.4282 414.245 419.0618 423.8786 428.6954 433.5122 438.329 443.1458 447.96263 452.77943 457.59623 462.41304 467.22984 472.04664 476.86344 481.68025 486.49705">Oversaw and offered constructive feedback to over 50 client-facing strategies and graphics per quarter</tspan></text>
<g id="Layer-4" data-name="Span">
<text xml:space="preserve" transform="matrix(1 0 -0 1 63 666.0126)" font-size="8" font-family="Menlo"><tspan y="0" x="491.2734"> </tspan></text>
</g>
</g>
</g>
<g id="Layer-2" data-name="P">
<g id="Layer-3" data-name="P">
<text xml:space="preserve" transform="matrix(1 0 -0 1 54 676.4594)" font-size="8" font-family="Helvetica"><tspan y="0" x="0">&#x25cf;</tspan></text>
</g>
<g id="Layer-3" data-name="P">
<text xml:space="preserve" transform="matrix(1 0 -0 1 63 675.9126)" font-size="8" font-family="Menlo"><tspan y="0" x="0 4.8168008 9.633601 14.450401 19.267203 24.084004 28.900805 33.717607 38.534406 43.351205 48.168004 52.984804 57.8016 62.6184 67.4352 72.25201 77.06881 81.88561 86.702419 91.51922 96.33602 101.152828 105.96963 110.78643 115.60323 120.42004 125.23684 130.05364 134.87044 139.68724 144.50405 149.32085 154.13765 158.95446 163.77126 168.58806 173.40486 178.22167">Voted &#x201c;Most Valuable Designer&#x201d; in 2020</tspan></text>
<g id="Layer-4" data-name="Span">
<text xml:space="preserve" transform="matrix(1 0 -0 1 63 675.9126)" font-size="8" font-family="TimesNewRomanPSMT"><tspan y="0" x="183.0234"> </tspan></text>
</g>
</g>
</g>
</g>
<g id="Layer-1" data-name="P">
<text xml:space="preserve" transform="matrix(1 0 -0 1 36 701.1233)" font-size="12" font-family="ProximaNova"><tspan y="0" x="0 7.2720005 15.120001 18.624 24.972 31.32 38.592 41.663999 49.452 52.524 56.028 64.908 71.976 79.044 86.976 94.044 101.268009 108.240009">SKILLS &#x0026; INTERESTS</tspan></text>
<g id="Layer-2" data-name="Span">
<text xml:space="preserve" transform="matrix(1 0 -0 1 36 701.1233)" font-size="12" font-family="TimesNewRomanPS" font-weight="bold"><tspan y="0" x="115.512"> </tspan></text>
</g>
</g>
<g id="Layer-1" data-name="P">
<g id="Layer-2" data-name="Span">
<text xml:space="preserve" transform="matrix(1 0 -0 1 36 716.03329)" font-size="7" font-family="Cambria" font-weight="bold"><tspan y="0" x="0">&#x0009;</tspan></text>
</g>
</g>
<g id="Layer-1" data-name="P">
<text xml:space="preserve" transform="matrix(1 0 -0 1 36 727.7193)" font-size="10" font-family="ProximaNova" font-weight="bold"><tspan y="0" x="0 4.84 10.370001 15.360001 21.16 26.95 29.480002 34.47 39.9 42.43">Technical:</tspan></text>
<text xml:space="preserve" transform="matrix(1 0 -0 1 36 727.7193)" font-size="10" font-family="TimesNewRomanPSMT"><tspan y="0" x="44.94"> </tspan></text>
<text xml:space="preserve" transform="matrix(1 0 -0 1 36 727.7193)" font-size="8" font-family="Menlo"><tspan y="0" x="47.44 52.256799 57.073598 61.890398 66.7072 71.524 76.340808 81.15761 85.97441 90.791217 95.60802 100.42482 105.24162 110.058429 114.87523 119.69203 124.508838 129.32564 134.14244 138.95925 143.77605 148.59285 153.40966 158.22646 163.04326 167.86006 172.67687 177.49367 182.31047 187.12728 191.94408 196.76088 201.57769 206.39449 211.21129 216.02809 220.8449 225.6617 230.4785 235.2953 240.1121 244.92891 249.74571 254.56252 259.3793 264.1961 269.0129 273.8297 278.6465 283.46333 288.28013 293.09693 297.91374 302.73054 307.54734 312.36415 317.18095 321.99775 326.81455 331.63136 336.44816 341.26496 346.08177 350.89857 355.71537 360.53218 365.34898 370.16578 374.98258 379.79939 384.61619 389.43299 394.2498 399.0666 403.8834 408.7002 413.517 418.3338 423.1506 427.9674 432.7842 437.601 442.41783 447.23463 452.05143 456.86824 461.68504 466.50184 471.31864 476.13545 480.95225 485.76905 490.58586 495.40266 500.21946 505.03627 509.85307 514.66989 519.48666 524.3034">Python; C++; Swift; Javascript (Node.js, Vue/Nuxt, React); HTML/CSS; PHP; SQL; Solidity; Rust; Git; </tspan></text>
<text xml:space="preserve" transform="matrix(1 0 -0 1 36 740.03738)" font-size="8" font-family="Menlo"><tspan y="0" x="0 4.8168008 9.633601 14.450401 19.267203">Mocha</tspan></text>
<g id="Layer-2" data-name="Span">
<text xml:space="preserve" transform="matrix(1 0 -0 1 36 740.03738)" font-size="10" font-family="TimesNewRomanPSMT"><tspan y="0" x="24.08203"> </tspan></text>
</g>
</g>
<g id="Layer-1" data-name="P">
<text xml:space="preserve" transform="matrix(1 0 -0 1 36 752.29409)" font-size="10" font-family="ProximaNova" font-weight="bold"><tspan y="0" x="0 6 11.35 13.880001 16.410002 18.940003 23.710003">Skills:</tspan></text>
<text xml:space="preserve" transform="matrix(1 0 -0 1 36 752.29409)" font-size="10" font-family="ProximaNova"><tspan y="0" x="26.22"> </tspan></text>
<text xml:space="preserve" transform="matrix(1 0 -0 1 36 752.29409)" font-size="8" font-family="Menlo"><tspan y="0" x="28.8 33.6168 38.433599 43.250398 48.067197 52.883996 57.700796 62.517595 67.3344 72.1512 76.968 81.784809 86.60161 91.41841 96.235218 101.05202 105.86882 110.68562 115.502429 120.31923 125.13603 129.95284 134.76964 139.58644 144.40325 149.22005 154.03685 158.85366 163.67046 168.48726 173.30406 178.12087 182.93767 187.75447 192.57128 197.38808 202.20488 207.02169 211.83849 216.65529 221.47209 226.2889 231.1057 235.9225 240.7393 245.5561 250.37291 255.18972 260.0065 264.8233 269.6401 274.4569 279.2737 284.0905 288.90733 293.72413 298.54093 303.35774 308.17454 312.99134 317.80815 322.62495 327.44175 332.25856 337.07536 341.89216 346.70896 351.52577 356.34257 361.15937 365.97618 370.79298 375.60978 380.42658 385.24339 390.06019 394.87699 399.6938 404.5106 409.3274 414.1442">Adobe Photoshop, Lightroom, Illustrator, InDesign; Figma; fluent in Chinese      </tspan></text>
<text xml:space="preserve" transform="matrix(1 0 -0 1 36 752.29409)" font-size="10" font-family="TimesNewRomanPSMT"><tspan y="0" x="418.9289 421.4289">  </tspan></text>
</g>
<path transform="matrix(1,0,0,1,36,36)" stroke-width=".3515625" stroke-linecap="butt" stroke-miterlimit="10" stroke-linejoin="miter" fill="none" stroke="#000000" d="M 202.5703 22.58558 L 337.4297 22.58558 "/>
<path transform="matrix(1,0,0,1,36,36)" stroke-width=".3515625" stroke-linecap="butt" stroke-miterlimit="10" stroke-linejoin="miter" fill="none" stroke="#000000" d="M 209.7949 31.58558 L 330.2051 31.58558 "/>
<path transform="matrix(1,0,0,1,36,36)" stroke-width=".3515625" stroke-linecap="butt" stroke-miterlimit="10" stroke-linejoin="miter" fill="none" stroke="#000000" d="M 123.3281 170.4352 L 185.9414 170.4352 "/>
<path transform="matrix(1,0,0,1,36,36)" stroke-width=".3515625" stroke-linecap="butt" stroke-miterlimit="10" stroke-linejoin="miter" fill="none" stroke="#000000" d="M 383.4141 286.16 L 455.6602 286.16 "/>
<path transform="matrix(1,0,0,1,36,36)" stroke-width=".3515625" stroke-linecap="butt" stroke-miterlimit="10" stroke-linejoin="miter" fill="none" stroke="#000000" d="M 173.3906 420.449 L 293.8008 420.449 "/>
<g id="Layer-1" data-name="P">
</g>
<clipPath id="cp2">
<path transform="matrix(1,0,0,-1,0,792)" d="M 35.00286 698.5018 L 577.0028 697.4981 L 576.9973 694.4981 L 34.9973 695.5019 Z "/>
</clipPath>
<g clip-path="url(#cp2)">
<clipPath id="cp3">
<path transform="matrix(1,0,0,-1,0,792)" d="M 0 0 L 612 0 L 612 792 L 0 792 Z "/>
</clipPath>
<g clip-path="url(#cp3)">
<path transform="matrix(.9999983,.001851961,-.001851961,.9999983,36.00008,95)" stroke-width="1" stroke-linecap="butt" stroke-linejoin="round" fill="none" stroke="#000000" d="M 0 0 L 540.0009 0 "/>
</g>
<g id="Layer-1" data-name="P">
</g>
</g>
<clipPath id="cp4">
<path transform="matrix(1,0,0,-1,0,792)" d="M 35.00286 627.077 L 577.0028 626.0733 L 576.9973 623.0733 L 34.9973 624.077 Z "/>
</clipPath>
<g clip-path="url(#cp4)">
<clipPath id="cp5">
<path transform="matrix(1,0,0,-1,0,792)" d="M 0 0 L 612 0 L 612 792 L 0 792 Z "/>
</clipPath>
<g clip-path="url(#cp5)">
<path transform="matrix(.9999983,.001851961,-.001851961,.9999983,36.00008,166.4248)" stroke-width="1" stroke-linecap="butt" stroke-linejoin="round" fill="none" stroke="#000000" d="M 0 0 L 540.0009 0 "/>
</g>
<g id="Layer-1" data-name="P">
</g>
</g>
<clipPath id="cp6">
<path transform="matrix(1,0,0,-1,0,792)" d="M 35.00286 273.0022 L 577.0028 271.9984 L 576.9973 268.9984 L 34.9973 270.0022 Z "/>
</clipPath>
<g clip-path="url(#cp6)">
<clipPath id="cp7">
<path transform="matrix(1,0,0,-1,0,792)" d="M 0 0 L 612 0 L 612 792 L 0 792 Z "/>
</clipPath>
<g clip-path="url(#cp7)">
<path transform="matrix(.9999983,.001851961,-.001851961,.9999983,36.00008,520.4997)" stroke-width="1" stroke-linecap="butt" stroke-linejoin="round" fill="none" stroke="#000000" d="M 0 0 L 540.0009 0 "/>
</g>
<g id="Layer-1" data-name="P">
</g>
</g>
<clipPath id="cp8">
<path transform="matrix(1,0,0,-1,0,792)" d="M 35.00286 84.80256 L 577.0028 83.79879 L 576.9973 80.7988 L 34.9973 81.80256 Z "/>
</clipPath>
<g clip-path="url(#cp8)">
<clipPath id="cp9">
<path transform="matrix(1,0,0,-1,0,792)" d="M 0 0 L 612 0 L 612 792 L 0 792 Z "/>
</clipPath>
<g clip-path="url(#cp9)">
<path transform="matrix(.9999983,.001851961,-.001851961,.9999983,36.00008,708.6993)" stroke-width="1" stroke-linecap="butt" stroke-linejoin="round" fill="none" stroke="#000000" d="M 0 0 L 540.0009 0 "/>
</g>
</g>
</g>
</g>
</svg>
