<?xml version="1.0" encoding="utf-8"?>
<!-- Generator: Adobe Illustrator 26.0.3, SVG Export Plug-In . SVG Version: 6.00 Build 0)  -->
<svg version="1.1" id="Layer_1" xmlns="http://www.w3.org/2000/svg" xmlns:xlink="http://www.w3.org/1999/xlink" x="0px" y="0px"
	 viewBox="0 0 226 226" style="enable-background:new 0 0 226 226;" xml:space="preserve">
<path d="M208.56,193.08c-0.15,16.12-13.14,30.47-29.12,32.85c-0.72,0.11-1.41,0.33-2.11,0.5H30.96c-0.4-0.14-0.79-0.35-1.21-0.42
	c-12.62-2.02-21.68-8.86-26.97-20.43c-1.5-3.27-2.1-6.95-3.12-10.45V48.77c1.22-3.98,1.9-8.23,3.76-11.88
	c6.2-12.17,16.33-19.13,30.05-19.32c25.71-0.37,51.43-0.14,77.14-0.13c3.92,0.01,6.25,2.42,6.28,6.38
	c0.04,4.78,0.02,9.55,0.01,14.33c-0.01,4.85-2.27,7.06-7.21,7.06H36.52c-6.6,0-9.04,2.44-9.04,9.04v135.33
	c0,6.53,2.52,9.04,9.08,9.04H171.9c6.55,0,8.99-2.47,8.99-9.09c0-22.99-0.01-45.99,0-68.99c0-5.53,2.06-7.63,7.52-7.64
	c4.56-0.02,9.12-0.06,13.67,0.02c4.24,0.07,6.57,2.29,6.57,6.32C208.67,143.85,208.79,168.47,208.56,193.08z"/>
<path d="M225.34,7.4c0.02,20.64,0.02,41.28,0,61.93c0,4.32-2.36,6.69-6.67,6.72c-4.84,0.03-9.69,0.03-14.54,0
	c-4.21-0.04-6.53-2.36-6.55-6.57c-0.04-6.17-0.01-12.34-0.02-18.51c0-0.71-0.06-1.41-0.09-2.11c-0.3-0.25-0.61-0.5-0.91-0.75
	c-0.36,0.73-0.57,1.61-1.11,2.15c-26.31,26.36-52.66,52.69-78.98,79.04c-1.95,1.95-4.04,3.3-6.84,2.3c-1.12-0.41-2.19-1.2-3.06-2.04
	c-3.28-3.16-6.47-6.41-9.69-9.63c-3.66-3.68-3.66-6.72,0.01-10.4c26.29-26.28,52.57-52.56,78.86-78.85
	c0.55-0.55,1.08-1.13,2.05-2.15c-7.31,0-13.98,0.01-20.66,0c-4.92-0.01-7.09-2.2-7.1-7.13c-0.02-4.63-0.03-9.26,0-13.89
	c0.03-4.43,2.38-6.75,6.85-6.76c20.57-0.01,41.14-0.01,61.71,0C222.95,0.76,225.34,3.1,225.34,7.4z"/>
</svg>
