<svg id="Layer_1" data-name="Layer 1" xmlns="http://www.w3.org/2000/svg" viewBox="0 0 19.08 50.81"><defs><style scoped>.cls-1{fill:#fff;}</style></defs><path class="cls-1" d="M35.65,11.79V30.47h2.1v3.12h-2.1V52.28a1.62,1.62,0,0,0,1.26,1.59,21.77,21.77,0,0,0,4.8.29v3.28H22.63V54.16a21.85,21.85,0,0,0,4.81-.29,1.62,1.62,0,0,0,1.26-1.59V33.59H26.6V30.47h2.1V11.79a1.62,1.62,0,0,0-1.26-1.59,21.85,21.85,0,0,0-4.81-.29V6.63H41.71V9.91a21.77,21.77,0,0,0-4.8.29A1.62,1.62,0,0,0,35.65,11.79Z" transform="translate(-22.63 -6.63)"/></svg>