<svg id="Layer_1" data-name="Layer 1" xmlns="http://www.w3.org/2000/svg" viewBox="0 0 199.89 200.47"><defs><style>.cls-1{fill:#ffa4b1;}.cls-2{fill:#ffceb3;}.cls-3{fill:#fff2eb;}.cls-4{fill:#ffba98;}</style></defs><polyline class="cls-1" points="199.89 0 199.89 199.89 0 199.89 0 0 199.89 0"/><path class="cls-2" d="M146,199.44H56.63c-.06-4.57,0-9.28.16-13.93h0c0-.43.67-10.82.81-15.83l.09-1.41c.2-2.79.41-5.44.61-7.88.78-9.24,1.54-15.52,1.54-15.52-.17-1.76-.34-3.5-.48-5.19-.18-2.1-.34-4.14-.48-6.14a.11.11,0,0,1,0,0c-.13-1.77-.23-3.5-.33-5.19q-.27-4.85-.4-9.31v-.27c-.06-2-.09-4-.1-5.88v-2c0-2.48.05-4.85.12-7.12.06-1.71.14-3.36.23-5,0-.24,0-.48,0-.72.11-1.83.25-3.6.41-5.29l.06-.62c.09-.93.18-1.84.28-2.73.45-3.85,1-7.32,1.63-10.44q.75-3.68,1.64-6.73c3.41-11.9,8-17.23,11.12-19.56h0a9.25,9.25,0,0,1,3.23-1.74,36.09,36.09,0,0,1,16.07-.43,40.53,40.53,0,0,1,13.37,5.38l.45.28.22.15.43.28h0L108,57h0l.41.29.8.57.58.42.19.15.36.28.19.14.31.25.42.34.31.25.36.3.44.38h0l.43.38.6.54.26.24c.45.42.87.82,1.24,1.19l.22.22.11.1.29.31h0l.09.1c.63.66,1.29,1.28,2,1.91.5.47,1,1,1.5,1.45a23.39,23.39,0,0,1,4.43,7.18,69.06,69.06,0,0,1,3.28,9.92c0,.2.11.41.16.62a177.17,177.17,0,0,1,3.57,19.13c.16,1.17.31,2.33.46,3.49q.38,3,.68,5.93c.72,6.8,1.17,13.07,1.45,17.8l0,.31c.07,1.11.17,2.22.32,3.32.18,1.39.42,2.77.73,4.14h0a41,41,0,0,0,2.19,6.93c.46,1.1.9,2.22,1.31,3.36q.5,1.35,1,2.73h0c1,3.12,1.93,6.36,2.71,9.68,3,12.91,4.25,26.81,4.68,38.13" transform="translate(-0.11 0.45)"/><path d="M146,199.44v-.29H56.63v.29h.29c0-1.12,0-2.25,0-3.38,0-3.49.07-7,.18-10.54h0a1.88,1.88,0,0,1,0-.19c0-.75.21-3.49.38-6.62s.36-6.67.42-9H57.6l.29,0,.09-1.41h0c.2-2.79.41-5.43.61-7.87.39-4.62.78-8.5,1.06-11.22.15-1.37.27-2.44.35-3.17,0-.37.07-.65.1-.84l0-.28v-.07q-.26-2.64-.48-5.19h0q-.27-3.14-.48-6.13v0h0a.1.1,0,0,1,0,0l-.29,0,.29,0c-.12-1.76-.23-3.48-.33-5.17q-.27-4.86-.39-9.3h0a2.62,2.62,0,0,1,0-.27h0c-.06-2-.09-4-.1-5.87h0v-2h0q0-3.71.12-7.11h0c.06-1.71.14-3.36.23-5h0c0-.24,0-.48,0-.72h0c.11-1.83.25-3.59.41-5.28h0l.06-.63h0c.09-.93.18-1.84.28-2.73h0c.45-3.84,1-7.3,1.63-10.41h0c.5-2.44,1-4.68,1.63-6.71h0A51.05,51.05,0,0,1,68.38,59a23,23,0,0,1,5.37-6.11.24.24,0,0,0,.06-.08h0l-.25-.16.15.25h0l0,0h0l-.21-.21.18.24A12,12,0,0,1,76,51.46l.63-.25.16-.05h.05l0-.12,0,.12h0l0-.12,0,.12h0a36.93,36.93,0,0,1,9-1.12,35.71,35.71,0,0,1,7,.69,40.42,40.42,0,0,1,13.27,5.35h0l.44.28h0l.22.14h0l.43.28,0,0h0l.13-.26-.16.24.63.42,0,0h0L108,57l-.17.24.41.29h0l.8.56h0l.57.43h0l.19.14h0l.36.28h0l.18.14h0l.31.25.18-.23-.18.23.42.34h0l.3.24h0l.36.3h0l.44.38.06,0h0l.13-.26-.2.22.44.38h0l.59.53h0l.26.24h0c.45.42.86.82,1.23,1.19h0l.22.21h0l.11.11.3.31h0l.21-.21-.22.2.1.1h0c.64.67,1.3,1.3,2,1.92h0c.5.48,1,1,1.49,1.44h0a23.19,23.19,0,0,1,4.37,7.1h0a70.48,70.48,0,0,1,3.26,9.87h0c0,.21.11.41.16.62h0a178.63,178.63,0,0,1,3.56,19.1h0c.16,1.17.31,2.33.46,3.48h0q.38,3,.68,5.93h0c.72,6.8,1.17,13.06,1.45,17.79h0c0,.1,0,.2,0,.32l.3,0-.3,0c.07,1.11.18,2.23.33,3.34h0c.18,1.41.42,2.8.73,4.17l.29-.06h-.29v.07a41.92,41.92,0,0,0,2.21,7h0c.46,1.09.89,2.2,1.31,3.34h0c.33.89.65,1.8,1,2.72v0h0l.27-.11-.28.09c1,3.11,1.92,6.35,2.7,9.66h0c3,12.88,4.25,26.77,4.68,38.07H146v0h.3c-.44-11.33-1.66-25.25-4.7-38.19h0c-.78-3.32-1.68-6.57-2.71-9.71v0h0l-.27.12.27-.09c-.3-.93-.62-1.84-.95-2.75h0c-.42-1.15-.86-2.27-1.32-3.37h0a41.66,41.66,0,0,1-2.18-6.88l-.28.06h.29a.13.13,0,0,0,0-.06c-.3-1.36-.54-2.74-.72-4.12h0c-.14-1.09-.25-2.2-.32-3.3h0a3,3,0,0,1,0-.31h0c-.28-4.73-.74-11-1.46-17.81h0c-.2-1.94-.43-3.93-.68-5.94h0c-.15-1.16-.3-2.32-.46-3.49h0a180.7,180.7,0,0,0-3.57-19.16h0c-.06-.21-.11-.42-.16-.62h0a69.59,69.59,0,0,0-3.3-10h0a23.59,23.59,0,0,0-4.49-7.28h0c-.5-.5-1-1-1.51-1.46h0c-.67-.62-1.32-1.24-2-1.89l-.21.2.21-.2-.09-.1h0l-.21.21.21-.2-.29-.31-.11-.11h0l-.22-.22h0c-.38-.37-.79-.77-1.25-1.2h0L113.6,61h0l-.6-.54h0l-.44-.38-.06,0h0l-.13.26.2-.22-.46-.39h0l-.36-.3h0l-.3-.25h0l-.43-.34h0l-.31-.25h0l-.19-.14h0l-.37-.29h0L110,58h0l-.58-.43h0l-.8-.57h0l-.42-.29,0,0h0L108,57l.16-.24-.63-.43h0l-.13.27.16-.25-.43-.28h0l-.23-.14h0l-.45-.28h0a40.84,40.84,0,0,0-13.47-5.43,36,36,0,0,0-7.1-.71,37.59,37.59,0,0,0-9.1,1.14l.07.29-.07-.29a9.71,9.71,0,0,0-3.34,1.8l0,0h0l.21.21-.15-.25h0a.2.2,0,0,0-.09.09h0l.24.16-.18-.23a23.77,23.77,0,0,0-5.5,6.26A51.42,51.42,0,0,0,62.17,72.1h0q-.89,3.08-1.64,6.75h0c-.64,3.13-1.19,6.61-1.64,10.47h0c-.1.89-.19,1.8-.29,2.73h0c0,.21,0,.41-.05.62h0c-.16,1.7-.3,3.47-.41,5.3h0c0,.23,0,.47,0,.72h0c-.1,1.6-.17,3.25-.23,5h0c-.08,2.28-.12,4.65-.12,7.13h0v2h0c0,1.9,0,3.86.09,5.89h0a2.44,2.44,0,0,1,0,.27h0c.08,3,.21,6.08.4,9.32q.14,2.53.33,5.19h0a.42.42,0,0,0,0,.07l.29-.05-.3,0c.14,2,.31,4.05.49,6.14h0c.14,1.7.3,3.44.48,5.2l.29,0-.29,0s-.76,6.28-1.54,15.53c-.2,2.44-.41,5.09-.61,7.88h0c0,.47-.07.94-.1,1.41h0c-.06,2.5-.26,6.35-.44,9.62-.1,1.64-.18,3.14-.25,4.25,0,.56-.06,1-.08,1.35,0,.17,0,.31,0,.41a1,1,0,0,1,0,.2h0c-.11,3.5-.18,7.05-.18,10.55q0,1.69,0,3.39a.28.28,0,0,0,.29.28H146a.31.31,0,0,0,.3-.3Z" transform="translate(-0.11 0.45)"/><path d="M117,141.13h0a50.88,50.88,0,0,1-6.62,2.35,55.81,55.81,0,0,1-15.23,2.26,37.63,37.63,0,0,1-16.47-3.54.3.3,0,0,0-.39.14.29.29,0,0,0,.13.39,38.32,38.32,0,0,0,16.73,3.59A56.56,56.56,0,0,0,110.7,144a50.43,50.43,0,0,0,6.51-2.33.29.29,0,0,0,.14-.39A.29.29,0,0,0,117,141.13Z" transform="translate(-0.11 0.45)"/><path class="cls-3" d="M73.57,52.62a9.49,9.49,0,0,1,3.24-1.75c19.73-4.94,34,7.55,38.81,12.53a16,16,0,0,0-4-7.44s-9.71-11.85-24.92-10.89A17.19,17.19,0,0,0,73.57,52.62Z" transform="translate(-0.11 0.45)"/><path d="M73.57,52.62l.18.23A12.93,12.93,0,0,1,76,51.46c.28-.12.49-.2.64-.25l.16-.05h0l0-.12,0,.12h0l0-.12,0,.12h0a36.93,36.93,0,0,1,9-1.12,38,38,0,0,1,18.88,5.22,48.71,48.71,0,0,1,10.69,8.35.28.28,0,0,0,.34.06.29.29,0,0,0,.16-.31,12.54,12.54,0,0,0-.78-2.45,16.94,16.94,0,0,0-3.32-5.14l-.21.2.23-.19a32.65,32.65,0,0,0-6.32-5.52,33.53,33.53,0,0,0-7.36-3.8,28.55,28.55,0,0,0-9.7-1.73c-.59,0-1.18,0-1.79.06h0a17.46,17.46,0,0,0-13.33,7.68.29.29,0,0,0,.42.39l-.18-.23.25.16A16.86,16.86,0,0,1,86.7,45.37h0c.59,0,1.17-.06,1.75-.06A28,28,0,0,1,98,47a33.85,33.85,0,0,1,9.88,5.72,34.49,34.49,0,0,1,2.64,2.43c.3.31.53.56.68.73l.17.2,0,.05h0l0,0a16.5,16.5,0,0,1,3.2,5,14.1,14.1,0,0,1,.59,1.69q.09.31.12.48a.68.68,0,0,0,0,.12v0h0l.29-.05.21-.2A48.92,48.92,0,0,0,105,54.74a38.56,38.56,0,0,0-19.17-5.3,37.65,37.65,0,0,0-9.1,1.14l.07.29-.06-.29a9.77,9.77,0,0,0-3.35,1.81l.17.23.25.16Z" transform="translate(-0.11 0.45)"/><path d="M73.8,52.81h0a.29.29,0,0,0-.45-.38h0a.29.29,0,1,0,.45.38" transform="translate(-0.11 0.45)"/><path d="M75.6,146.27a32.47,32.47,0,0,0,6,3.15,41.29,41.29,0,0,0,15.66,3.13,42.53,42.53,0,0,0,23.33-7.2.29.29,0,0,0,.09-.41.29.29,0,0,0-.4-.08,42.14,42.14,0,0,1-23,7.11,40.91,40.91,0,0,1-15.44-3.09,39,39,0,0,1-4.36-2.13c-.5-.29-.89-.53-1.15-.7l-.29-.19-.07-.05h0a.3.3,0,0,0-.41.07.28.28,0,0,0,.07.41Z" transform="translate(-0.11 0.45)"/><path d="M73.8,52.81h0a.29.29,0,0,0-.45-.38h0a.29.29,0,1,0,.45.38" transform="translate(-0.11 0.45)"/><path d="M74,53h0a.59.59,0,0,0-.07-.83.58.58,0,0,0-.82.07h0a.6.6,0,0,0,.06.83A.59.59,0,0,0,74,53" transform="translate(-0.11 0.45)"/><path d="M146,199.44v-.58H56.63v.58h.58c0-1.11,0-2.24,0-3.37,0-3.49.07-7,.18-10.53v0h-.58l.58,0v-.06c0-.12,0-.39,0-.76.08-1.32.24-4,.4-6.9s.31-6,.36-8.11l-.58,0,.58,0c0-.47.06-.94.1-1.41h0c.19-2.79.4-5.43.61-7.87h0c.39-4.62.77-8.49,1.06-11.21.14-1.36.26-2.44.34-3.17,0-.36.08-.64.1-.83l0-.22v-.07a.28.28,0,0,0,0-.13c-.17-1.76-.33-3.49-.48-5.18h0c-.18-2.08-.34-4.13-.48-6.12v-.05l-.35.06.36,0v0l-.35.06.36,0-.16,0h.16l-.16,0h.16a.28.28,0,0,0,0-.06l-.58.07.58-.05c-.12-1.76-.23-3.48-.33-5.17q-.27-4.84-.39-9.29h0c0-.09,0-.18,0-.27h0c0-2-.09-4-.09-5.88h0c0-.4,0-.8,0-1.2v-.84h0c0-2.47.05-4.83.13-7.1h0c0-1.7.13-3.35.22-4.94h0c0-.24,0-.48.05-.72h0c.11-1.83.24-3.59.4-5.28h0l.06-.62h0c.09-.92.18-1.83.29-2.71h0c.44-3.84,1-7.29,1.62-10.39h0c.49-2.44,1-4.66,1.62-6.69h0a50.61,50.61,0,0,1,5.62-13.21,22.79,22.79,0,0,1,5.29-6,.62.62,0,0,0,.14-.14h0l-.49-.32.3.5h0A.48.48,0,0,0,74,53h0l.07-.09c0-.06.09-.13.14-.2l-.49-.32.49.33a16.72,16.72,0,0,1,1.34-1.68h0l.33-.35-.43-.4.42.41h0l.16-.17h0l.51-.49h0l.35-.32-.39-.44.35.47h0l0,0,.36-.3L76.86,49l.35.47h0l.37-.3-.37-.46.33.49h0l0,0,.56-.42h0l.2-.13h0l.57-.38-.31-.49.29.51.07,0h0c.19-.12.38-.24.58-.35h0c.2-.12.41-.23.62-.34h0l.41-.21h0l.67-.31h0l.59-.24h0l.09,0h0l.61-.22h0a16.31,16.31,0,0,1,4.18-.82h0c.58,0,1.16-.06,1.73-.06a27.41,27.41,0,0,1,9.4,1.68A33.5,33.5,0,0,1,107.64,53a30.37,30.37,0,0,1,2.62,2.41c.29.3.52.55.67.72l.17.19,0,0h0l0,0a16.34,16.34,0,0,1,3.15,4.87,15.6,15.6,0,0,1,.58,1.66c0,.2.09.36.11.46a.5.5,0,0,0,0,.12v0h0l.58-.1.43-.4-.1-.1a.56.56,0,0,0-.41-.18.57.57,0,0,0-.42.16.6.6,0,0,0-.18.41.57.57,0,0,0,.16.41l.09.1h0c.64.67,1.31,1.3,2,1.92h0c.5.48,1,1,1.48,1.44h0a16.37,16.37,0,0,1,2.27,3,33.39,33.39,0,0,1,2,4h0A69.62,69.62,0,0,1,126.23,84h0c.06.21.11.42.16.62h0a178,178,0,0,1,3.56,19.07h0c.16,1.17.31,2.33.46,3.48h0c.25,2,.47,4,.68,5.92h0c.71,6.79,1.17,13,1.45,17.77h0c0,.09,0,.2,0,.32l.59-.05-.59,0c.07,1.12.18,2.24.33,3.35h0c.18,1.41.43,2.81.74,4.2l.57-.13h-.59a.59.59,0,0,0,0,.13,42.5,42.5,0,0,0,2.22,7h0c.45,1.08.89,2.2,1.3,3.33h0c.33.89.65,1.8,1,2.71l0,0h0l.54-.23-.56.18c1,3.1,1.92,6.33,2.7,9.63h0c3,12.85,4.24,26.73,4.67,38l.58,0v0l.59,0c-.44-11.34-1.66-25.28-4.7-38.24h0c-.79-3.33-1.69-6.6-2.73-9.74v0h0l-.53.23.55-.18q-.45-1.4-1-2.76h0c-.42-1.15-.86-2.28-1.32-3.38h0a40.86,40.86,0,0,1-2.16-6.84l-.57.13h.58a.57.57,0,0,0,0-.13c-.3-1.35-.54-2.71-.72-4.09h0c-.14-1.09-.25-2.18-.32-3.28h0c0-.09,0-.19,0-.3h0c-.28-4.74-.74-11-1.46-17.82h0c-.2-1.94-.43-3.93-.68-5.94h0c-.15-1.16-.3-2.33-.46-3.5h0a181.92,181.92,0,0,0-3.58-19.2h0c0-.21-.11-.41-.16-.61h0a69.75,69.75,0,0,0-3.31-10h0a31.77,31.77,0,0,0-2.12-4.17,17.57,17.57,0,0,0-2.43-3.19h0c-.51-.51-1-1-1.52-1.47h0c-.66-.62-1.32-1.24-1.94-1.89l-.42.41.43-.4-.1-.1a.56.56,0,0,0-.41-.18.57.57,0,0,0-.42.16.6.6,0,0,0-.18.41.57.57,0,0,0,.16.41l.09.1a.6.6,0,0,0,.69.13.61.61,0,0,0,.32-.63,13.83,13.83,0,0,0-.8-2.52A17.31,17.31,0,0,0,112,55.56l-.43.4.45-.37A32.35,32.35,0,0,0,105.67,50a33.19,33.19,0,0,0-7.42-3.82,28.6,28.6,0,0,0-9.8-1.75q-.9,0-1.8.06h0a17.79,17.79,0,0,0-4.48.88h0l-.65.23h0l-.09,0h0l-.63.26h0l-.72.33h0l-.45.22h0l-.66.37h0l-.61.37h0l0,.06,0-.06h0l0,.06,0-.06,0,0-.61.4h0l-.21.15h0l-.6.45.37.46-.33-.49h0l0,0-.39.31.38.46-.35-.47h0l0,0-.38.32.39.44-.36-.47h0l0,0-.37.33h0l-.54.53h0l-.17.18.42.41L75,49.9h0l-.34.36h0a21,21,0,0,0-1.44,1.8h0l-.14.2.49.32-.41-.41h0l.42.42-.3-.51h0a.49.49,0,0,0-.18.17h0l.49.32-.35-.46a23.7,23.7,0,0,0-5.58,6.34A51.93,51.93,0,0,0,61.88,72h0c-.58,2-1.14,4.31-1.64,6.78h0q-1,4.7-1.64,10.48h0c-.1.9-.2,1.81-.29,2.74h0c0,.2,0,.4-.06.62h0c-.15,1.7-.29,3.47-.4,5.31h0c0,.24,0,.48-.05.72h0c-.09,1.6-.17,3.26-.22,5h0q-.12,3.42-.13,7.14h0v.84c0,.4,0,.8,0,1.21h0c0,1.91,0,3.87.09,5.9h0c0,.1,0,.19,0,.28h0q.12,4.47.4,9.33.13,2.53.33,5.19v0l.28,0-.28,0h0l.28,0-.28,0h0a.62.62,0,0,0,0,.09l.58-.09-.59,0q.21,3,.49,6.15h0c.14,1.7.3,3.43.48,5.2l.58-.06-.58-.07s-.76,6.29-1.54,15.54h0c-.2,2.45-.42,5.09-.61,7.89h0c0,.47-.07.94-.1,1.42v0c-.06,2.49-.26,6.33-.45,9.61-.09,1.64-.18,3.13-.24,4.24,0,.56-.06,1-.08,1.36,0,.16,0,.3,0,.4v.23h0c-.11,3.51-.18,7.06-.18,10.56,0,1.13,0,2.27,0,3.39a.6.6,0,0,0,.59.58H146a.58.58,0,0,0,.59-.61l-.59,0" transform="translate(-0.11 0.45)"/><path d="M74,53h0a.59.59,0,0,0-.07-.83.58.58,0,0,0-.82.07h0a.6.6,0,0,0,.06.83A.59.59,0,0,0,74,53" transform="translate(-0.11 0.45)"/><path class="cls-4" d="M68.18,102.88a57.23,57.23,0,0,1,2-14.9,44.66,44.66,0,0,1,9.11-17.84,23.82,23.82,0,0,1,6.51-5.26A15.54,15.54,0,0,1,93.1,63a14.89,14.89,0,0,1,5,.85,21,21,0,0,1,7.86,5.22,40.66,40.66,0,0,1,8.77,14.61A57.12,57.12,0,0,1,118,102.88c0,10.24-2.82,18.71-7.35,24.61a24.4,24.4,0,0,1-7.91,6.83,20.62,20.62,0,0,1-19.31,0,26.38,26.38,0,0,1-11-11.72,43.61,43.61,0,0,1-4.3-19.72M93.1,61.82h0a16.1,16.1,0,0,0-5.33.92,22,22,0,0,0-8.31,5.5,41.75,41.75,0,0,0-9,15A58,58,0,0,0,67,102.88h0c0,10.45,2.89,19.18,7.59,25.33a25.59,25.59,0,0,0,8.3,7.14,21.62,21.62,0,0,0,10.2,2.54h0a21.61,21.61,0,0,0,10.19-2.54,27.51,27.51,0,0,0,11.47-12.22,44.84,44.84,0,0,0,4.42-20.25,55.41,55.41,0,0,0-7.55-28.3,31.47,31.47,0,0,0-8.27-9.24,19.47,19.47,0,0,0-4.93-2.6,16.16,16.16,0,0,0-5.34-.92" transform="translate(-0.11 0.45)"/><path class="cls-4" d="M73.53,102.25A45.08,45.08,0,0,1,75.1,90.5a35,35,0,0,1,7.17-14,18.63,18.63,0,0,1,5.11-4.14,12.18,12.18,0,0,1,5.72-1.48,11.58,11.58,0,0,1,3.87.67,16.48,16.48,0,0,1,6.17,4.09A32.19,32.19,0,0,1,110,87.11a45,45,0,0,1,2.63,15.14c0,8.06-2.22,14.74-5.78,19.37a19.15,19.15,0,0,1-6.21,5.36,16.13,16.13,0,0,1-15.15,0,20.7,20.7,0,0,1-8.62-9.21,34.37,34.37,0,0,1-3.38-15.52M93.11,69.67h0a12.79,12.79,0,0,0-4.25.74,17.54,17.54,0,0,0-6.62,4.37,33.14,33.14,0,0,0-7.16,11.93,45.83,45.83,0,0,0-2.71,15.54h0c0,8.28,2.28,15.2,6,20.09A20.36,20.36,0,0,0,85,128a17.35,17.35,0,0,0,8.12,2h0a17.34,17.34,0,0,0,8.11-2,21.91,21.91,0,0,0,9.12-9.72,35.54,35.54,0,0,0,3.51-16,46.41,46.41,0,0,0-1.61-12,36.24,36.24,0,0,0-7.43-14.52,19.73,19.73,0,0,0-5.44-4.39,13.29,13.29,0,0,0-6.26-1.62" transform="translate(-0.11 0.45)"/><path class="cls-4" d="M108.9,101.66h0M93.11,76.93h0a9.77,9.77,0,0,0-3.26.57,13.4,13.4,0,0,0-5,3.33,25.12,25.12,0,0,0-5.44,9.06,34.73,34.73,0,0,0-2,11.77c0,6.27,1.73,11.53,4.57,15.25a15.58,15.58,0,0,0,5,4.32,13.11,13.11,0,0,0,6.19,1.54h0a13.11,13.11,0,0,0,6.19-1.54,16.64,16.64,0,0,0,6.94-7.39,26.93,26.93,0,0,0,2.66-12.18h-1.17c0,6.06-1.68,11.06-4.34,14.53a14.27,14.27,0,0,1-4.64,4,12.08,12.08,0,0,1-11.29,0A15.53,15.53,0,0,1,81,113.31a25.87,25.87,0,0,1-2.53-11.65,34.19,34.19,0,0,1,1.17-8.82A26.38,26.38,0,0,1,85,82.29a13.71,13.71,0,0,1,3.81-3.08A9,9,0,0,1,93.1,78.1a8.64,8.64,0,0,1,2.88.5,12.13,12.13,0,0,1,4.59,3.06,23.91,23.91,0,0,1,5.18,8.62,33.71,33.71,0,0,1,2,11.38h1.17a34.8,34.8,0,0,0-1.22-9.13,27.39,27.39,0,0,0-5.64-11,15,15,0,0,0-4.14-3.34,10.26,10.26,0,0,0-4.79-1.24" transform="translate(-0.11 0.45)"/><path class="cls-4" d="M83.51,101.06a22.56,22.56,0,0,1,.78-5.85,17.44,17.44,0,0,1,3.56-7,9.3,9.3,0,0,1,2.5-2,5.78,5.78,0,0,1,2.75-.71,5.6,5.6,0,0,1,1.86.32,7.9,7.9,0,0,1,3,2,15.69,15.69,0,0,1,3.42,5.7,22.44,22.44,0,0,1,1.31,7.54,15.71,15.71,0,0,1-2.86,9.61,9.28,9.28,0,0,1-3,2.62,7.84,7.84,0,0,1-7.37,0,10.13,10.13,0,0,1-4.23-4.52,17.12,17.12,0,0,1-1.68-7.71m9.6-16.73h0a6.55,6.55,0,0,0-2.24.38A9.32,9.32,0,0,0,87.41,87a17.22,17.22,0,0,0-3.69,6.13,23.52,23.52,0,0,0-1.38,7.94h0a16.91,16.91,0,0,0,3.1,10.32,10.66,10.66,0,0,0,3.43,3,9.07,9.07,0,0,0,4.23,1h0a9.07,9.07,0,0,0,4.23-1,11.33,11.33,0,0,0,4.72-5,18.18,18.18,0,0,0,1.8-8.24A23.6,23.6,0,0,0,103,94.9a18.54,18.54,0,0,0-3.81-7.44,10.08,10.08,0,0,0-2.83-2.28,6.92,6.92,0,0,0-3.29-.85" transform="translate(-0.11 0.45)"/><path class="cls-4" d="M87.6,100.58a13.48,13.48,0,0,1,.45-3.45,10.47,10.47,0,0,1,2.08-4.08,5.57,5.57,0,0,1,1.43-1.16,3.33,3.33,0,0,1,1.54-.4,3.12,3.12,0,0,1,1,.18,4.7,4.7,0,0,1,1.71,1.14,9.31,9.31,0,0,1,2,3.33,13.19,13.19,0,0,1,.77,4.44A9.2,9.2,0,0,1,97,106.19a5.48,5.48,0,0,1-1.75,1.5,4.43,4.43,0,0,1-4.2,0,5.82,5.82,0,0,1-2.43-2.6,10,10,0,0,1-1-4.51m5.51-10.26h0a4.29,4.29,0,0,0-1.42.25A5.53,5.53,0,0,0,89.53,92a10.22,10.22,0,0,0-2.26,3.75,14.23,14.23,0,0,0-.85,4.84h0a10.31,10.31,0,0,0,1.91,6.32,6.61,6.61,0,0,0,2.13,1.83,5.59,5.59,0,0,0,2.64.66h0a5.61,5.61,0,0,0,2.64-.66,7,7,0,0,0,2.93-3.12,11.17,11.17,0,0,0,1.1-5,14.5,14.5,0,0,0-.5-3.75A11.33,11.33,0,0,0,97,92.27a6.47,6.47,0,0,0-1.76-1.41,4.47,4.47,0,0,0-2.08-.54" transform="translate(-0.11 0.45)"/><path class="cls-4" d="M91.4,100.12a4.68,4.68,0,0,1,.16-1.19,4.22,4.22,0,0,1,.3-.78,2.36,2.36,0,0,1,.62-.81,1.28,1.28,0,0,1,.32-.2.84.84,0,0,1,.3-.06.86.86,0,0,1,.27,0,1.31,1.31,0,0,1,.5.34,3.09,3.09,0,0,1,.67,1.12,4.77,4.77,0,0,1,.26,1.53,3.06,3.06,0,0,1-.55,1.89,1.74,1.74,0,0,1-.53.46,1.32,1.32,0,0,1-.62.15,1.28,1.28,0,0,1-.61-.15,1.8,1.8,0,0,1-.76-.82,3.37,3.37,0,0,1-.33-1.53m1.7-4.21h0a2,2,0,0,0-.65.11,2.51,2.51,0,0,0-1,.63,4.32,4.32,0,0,0-.93,1.54,5.59,5.59,0,0,0-.34,1.93h0a4.28,4.28,0,0,0,.79,2.6,3,3,0,0,0,.92.79,2.55,2.55,0,0,0,1.16.28h0a2.58,2.58,0,0,0,1.16-.28,3,3,0,0,0,1.25-1.33,4.6,4.6,0,0,0,.45-2.06,5.77,5.77,0,0,0-.2-1.5,5.12,5.12,0,0,0-.38-1,3.54,3.54,0,0,0-.93-1.18,2.25,2.25,0,0,0-.63-.38,1.94,1.94,0,0,0-.73-.14" transform="translate(-0.11 0.45)"/></svg>